<?xml version="1.0" encoding="UTF-8"?>
<svg width="498px" height="511px" viewBox="0 0 498 511" version="1.1" xmlns="http://www.w3.org/2000/svg" xmlns:xlink="http://www.w3.org/1999/xlink">
    <title>Group 4</title>
    <defs>
        <path d="M17.2739044,3.35125591 C12.0984562,7.74103803 15.9899659,16.7723482 11.535875,21.1163042 L11.535875,21.1163042 C7.59691152,24.9579587 2.58799924,24.3229401 0.573451313,30.6990153 L0.573451313,30.6990153 C-2.39017253,40.0790798 6.95016702,48.2977208 9.94841125,56.4086408 L9.94841125,56.4086408 C12.4646562,63.2156003 6.80571648,65.8092378 4.26320776,71.1134587 L4.26320776,71.1134587 C2.30327647,75.2026931 3.31055043,79.5823577 5.44686659,83.4915611 L5.44686659,83.4915611 C9.21332509,90.3848164 17.5637009,95.9345342 15.629138,104.860504 L15.629138,104.860504 C14.0148135,112.309624 12.5130054,118.948753 19.1055016,124.594884 L19.1055016,124.594884 C23.6246548,128.465105 32.0099495,131.992226 31.3709647,139.155677 L31.3709647,139.155677 C31.1447384,141.690693 29.3850681,143.851363 28.9027704,146.350372 L28.9027704,146.350372 C28.1393314,150.305402 30.7087007,154.154496 33.6926193,156.869245 L33.6926193,156.869245 C40.4823919,163.045649 46.4457522,168.870621 51.5313666,176.641416 L51.5313666,176.641416 C53.7046907,179.962022 62.4048517,187.460242 58.9278912,192 L58.9278912,192 C65.2481996,183.748031 71.9281421,175.745725 77.6709467,167.070608 L77.6709467,167.070608 C82.3942408,159.935427 89.5143993,149.499874 84.6675463,140.711978 L84.6675463,140.711978 C83.1600675,137.979077 80.3567121,135.941602 79.5881994,132.917377 L79.5881994,132.917377 C78.2012951,127.456634 83.5823764,122.394041 85.5828971,117.748347 L85.5828971,117.748347 C88.7238012,110.453965 86.4185615,101.982387 80.8861652,96.5073603 L80.8861652,96.5073603 C78.2681482,93.9166985 75.4280833,91.0680417 75.0433793,87.4102867 L75.0433793,87.4102867 C74.623458,83.4168705 77.1346293,79.6930545 78.2741173,76.0094108 L78.2741173,76.0094108 C79.3243682,72.6135191 79.9791709,69.0027805 80.3626812,65.475362 L80.3626812,65.475362 C80.6333767,62.9843868 80.7375363,60.4359802 80.1501837,57.9997583 L80.1501837,57.9997583 C79.0327811,53.3668598 74.8484904,50.7913742 71.7511603,47.5040963 L71.7511603,47.5040963 C64.3779149,39.6782503 68.2536066,30.4761339 65.0324191,21.3811433 L65.0324191,21.3811433 C62.4561854,14.1072934 57.1879187,14.1864475 51.818477,14.2653041 L51.818477,14.2653041 C51.1603913,14.2754215 50.5014103,14.2849438 49.8454138,14.2807778 L49.8454138,14.2807778 C45.9464428,14.2581624 42.1617788,13.7582414 39.4912343,9.94485625 L39.4912343,9.94485625 C35.8820598,4.79150439 30.9638768,0 25.3219488,0 L25.3219488,0 C22.7692927,0 20.0692016,0.98020223 17.2739044,3.35125591" id="path-1"></path>
        <path d="M17.2739044,3.35125591 C12.0984562,7.74103803 15.9899659,16.7723482 11.535875,21.1163042 L11.535875,21.1163042 C7.59691152,24.9579587 2.58799924,24.3229401 0.573451313,30.6990153 L0.573451313,30.6990153 C-2.39017253,40.0790798 6.95016702,48.2977208 9.94841125,56.4086408 L9.94841125,56.4086408 C12.4646562,63.2156003 6.80571648,65.8092378 4.26320776,71.1134587 L4.26320776,71.1134587 C2.30327647,75.2026931 3.31055043,79.5823577 5.44686659,83.4915611 L5.44686659,83.4915611 C9.21332509,90.3848164 17.5637009,95.9345342 15.629138,104.860504 L15.629138,104.860504 C14.0148135,112.309624 12.5130054,118.948753 19.1055016,124.594884 L19.1055016,124.594884 C23.6246548,128.465105 32.0099495,131.992226 31.3709647,139.155677 L31.3709647,139.155677 C31.1447384,141.690693 29.3850681,143.851363 28.9027704,146.350372 L28.9027704,146.350372 C28.1393314,150.305402 30.7087007,154.154496 33.6926193,156.869245 L33.6926193,156.869245 C40.4823919,163.045649 46.4457522,168.870621 51.5313666,176.641416 L51.5313666,176.641416 C53.7046907,179.962022 62.4048517,187.460242 58.9278912,192 L58.9278912,192 C65.2481996,183.748031 71.9281421,175.745725 77.6709467,167.070608 L77.6709467,167.070608 C82.3942408,159.935427 89.5143993,149.499874 84.6675463,140.711978 L84.6675463,140.711978 C83.1600675,137.979077 80.3567121,135.941602 79.5881994,132.917377 L79.5881994,132.917377 C78.2012951,127.456634 83.5823764,122.394041 85.5828971,117.748347 L85.5828971,117.748347 C88.7238012,110.453965 86.4185615,101.982387 80.8861652,96.5073603 L80.8861652,96.5073603 C78.2681482,93.9166985 75.4280833,91.0680417 75.0433793,87.4102867 L75.0433793,87.4102867 C74.623458,83.4168705 77.1346293,79.6930545 78.2741173,76.0094108 L78.2741173,76.0094108 C79.3243682,72.6135191 79.9791709,69.0027805 80.3626812,65.475362 L80.3626812,65.475362 C80.6333767,62.9843868 80.7375363,60.4359802 80.1501837,57.9997583 L80.1501837,57.9997583 C79.0327811,53.3668598 74.8484904,50.7913742 71.7511603,47.5040963 L71.7511603,47.5040963 C64.3779149,39.6782503 68.2536066,30.4761339 65.0324191,21.3811433 L65.0324191,21.3811433 C62.4561854,14.1072934 57.1879187,14.1864475 51.818477,14.2653041 L51.818477,14.2653041 C51.1603913,14.2754215 50.5014103,14.2849438 49.8454138,14.2807778 L49.8454138,14.2807778 C45.9464428,14.2581624 42.1617788,13.7582414 39.4912343,9.94485625 L39.4912343,9.94485625 C35.8820598,4.79150439 30.9638768,0 25.3219488,0 L25.3219488,0 C22.7692927,0 20.0692016,0.98020223 17.2739044,3.35125591" id="path-3"></path>
        <path d="M17.2739044,3.35125591 C12.0984562,7.74103803 15.9899659,16.7723482 11.535875,21.1163042 L11.535875,21.1163042 C7.59691152,24.9579587 2.58799924,24.3229401 0.573451313,30.6990153 L0.573451313,30.6990153 C-2.39017253,40.0790798 6.95016702,48.2977208 9.94841125,56.4086408 L9.94841125,56.4086408 C12.4646562,63.2156003 6.80571648,65.8092378 4.26320776,71.1134587 L4.26320776,71.1134587 C2.30327647,75.2026931 3.31055043,79.5823577 5.44686659,83.4915611 L5.44686659,83.4915611 C9.21332509,90.3848164 17.5637009,95.9345342 15.629138,104.860504 L15.629138,104.860504 C14.0148135,112.309624 12.5130054,118.948753 19.1055016,124.594884 L19.1055016,124.594884 C23.6246548,128.465105 32.0099495,131.992226 31.3709647,139.155677 L31.3709647,139.155677 C31.1447384,141.690693 29.3850681,143.851363 28.9027704,146.350372 L28.9027704,146.350372 C28.1393314,150.305402 30.7087007,154.154496 33.6926193,156.869245 L33.6926193,156.869245 C40.4823919,163.045649 46.4457522,168.870621 51.5313666,176.641416 L51.5313666,176.641416 C53.7046907,179.962022 62.4048517,187.460242 58.9278912,192 L58.9278912,192 C65.2481996,183.748031 71.9281421,175.745725 77.6709467,167.070608 L77.6709467,167.070608 C82.3942408,159.935427 89.5143993,149.499874 84.6675463,140.711978 L84.6675463,140.711978 C83.1600675,137.979077 80.3567121,135.941602 79.5881994,132.917377 L79.5881994,132.917377 C78.2012951,127.456634 83.5823764,122.394041 85.5828971,117.748347 L85.5828971,117.748347 C88.7238012,110.453965 86.4185615,101.982387 80.8861652,96.5073603 L80.8861652,96.5073603 C78.2681482,93.9166985 75.4280833,91.0680417 75.0433793,87.4102867 L75.0433793,87.4102867 C74.623458,83.4168705 77.1346293,79.6930545 78.2741173,76.0094108 L78.2741173,76.0094108 C79.3243682,72.6135191 79.9791709,69.0027805 80.3626812,65.475362 L80.3626812,65.475362 C80.6333767,62.9843868 80.7375363,60.4359802 80.1501837,57.9997583 L80.1501837,57.9997583 C79.0327811,53.3668598 74.8484904,50.7913742 71.7511603,47.5040963 L71.7511603,47.5040963 C64.3779149,39.6782503 68.2536066,30.4761339 65.0324191,21.3811433 L65.0324191,21.3811433 C62.4561854,14.1072934 57.1879187,14.1864475 51.818477,14.2653041 L51.818477,14.2653041 C51.1603913,14.2754215 50.5014103,14.2849438 49.8454138,14.2807778 L49.8454138,14.2807778 C45.9464428,14.2581624 42.1617788,13.7582414 39.4912343,9.94485625 L39.4912343,9.94485625 C35.8820598,4.79150439 30.9638768,0 25.3219488,0 L25.3219488,0 C22.7692927,0 20.0692016,0.98020223 17.2739044,3.35125591" id="path-5"></path>
        <path d="M17.2739044,3.35125591 C12.0984562,7.74103803 15.9899659,16.7723482 11.535875,21.1163042 L11.535875,21.1163042 C7.59691152,24.9579587 2.58799924,24.3229401 0.573451313,30.6990153 L0.573451313,30.6990153 C-2.39017253,40.0790798 6.95016702,48.2977208 9.94841125,56.4086408 L9.94841125,56.4086408 C12.4646562,63.2156003 6.80571648,65.8092378 4.26320776,71.1134587 L4.26320776,71.1134587 C2.30327647,75.2026931 3.31055043,79.5823577 5.44686659,83.4915611 L5.44686659,83.4915611 C9.21332509,90.3848164 17.5637009,95.9345342 15.629138,104.860504 L15.629138,104.860504 C14.0148135,112.309624 12.5130054,118.948753 19.1055016,124.594884 L19.1055016,124.594884 C23.6246548,128.465105 32.0099495,131.992226 31.3709647,139.155677 L31.3709647,139.155677 C31.1447384,141.690693 29.3850681,143.851363 28.9027704,146.350372 L28.9027704,146.350372 C28.1393314,150.305402 30.7087007,154.154496 33.6926193,156.869245 L33.6926193,156.869245 C40.4823919,163.045649 46.4457522,168.870621 51.5313666,176.641416 L51.5313666,176.641416 C53.7046907,179.962022 62.4048517,187.460242 58.9278912,192 L58.9278912,192 C65.2481996,183.748031 71.9281421,175.745725 77.6709467,167.070608 L77.6709467,167.070608 C82.3942408,159.935427 89.5143993,149.499874 84.6675463,140.711978 L84.6675463,140.711978 C83.1600675,137.979077 80.3567121,135.941602 79.5881994,132.917377 L79.5881994,132.917377 C78.2012951,127.456634 83.5823764,122.394041 85.5828971,117.748347 L85.5828971,117.748347 C88.7238012,110.453965 86.4185615,101.982387 80.8861652,96.5073603 L80.8861652,96.5073603 C78.2681482,93.9166985 75.4280833,91.0680417 75.0433793,87.4102867 L75.0433793,87.4102867 C74.623458,83.4168705 77.1346293,79.6930545 78.2741173,76.0094108 L78.2741173,76.0094108 C79.3243682,72.6135191 79.9791709,69.0027805 80.3626812,65.475362 L80.3626812,65.475362 C80.6333767,62.9843868 80.7375363,60.4359802 80.1501837,57.9997583 L80.1501837,57.9997583 C79.0327811,53.3668598 74.8484904,50.7913742 71.7511603,47.5040963 L71.7511603,47.5040963 C64.3779149,39.6782503 68.2536066,30.4761339 65.0324191,21.3811433 L65.0324191,21.3811433 C62.4561854,14.1072934 57.1879187,14.1864475 51.818477,14.2653041 L51.818477,14.2653041 C51.1603913,14.2754215 50.5014103,14.2849438 49.8454138,14.2807778 L49.8454138,14.2807778 C45.9464428,14.2581624 42.1617788,13.7582414 39.4912343,9.94485625 L39.4912343,9.94485625 C35.8820598,4.79150439 30.9638768,0 25.3219488,0 L25.3219488,0 C22.7692927,0 20.0692016,0.98020223 17.2739044,3.35125591" id="path-7"></path>
        <path d="M17.2739044,3.35125591 C12.0984562,7.74103803 15.9899659,16.7723482 11.535875,21.1163042 L11.535875,21.1163042 C7.59691152,24.9579587 2.58799924,24.3229401 0.573451313,30.6990153 L0.573451313,30.6990153 C-2.39017253,40.0790798 6.95016702,48.2977208 9.94841125,56.4086408 L9.94841125,56.4086408 C12.4646562,63.2156003 6.80571648,65.8092378 4.26320776,71.1134587 L4.26320776,71.1134587 C2.30327647,75.2026931 3.31055043,79.5823577 5.44686659,83.4915611 L5.44686659,83.4915611 C9.21332509,90.3848164 17.5637009,95.9345342 15.629138,104.860504 L15.629138,104.860504 C14.0148135,112.309624 12.5130054,118.948753 19.1055016,124.594884 L19.1055016,124.594884 C23.6246548,128.465105 32.0099495,131.992226 31.3709647,139.155677 L31.3709647,139.155677 C31.1447384,141.690693 29.3850681,143.851363 28.9027704,146.350372 L28.9027704,146.350372 C28.1393314,150.305402 30.7087007,154.154496 33.6926193,156.869245 L33.6926193,156.869245 C40.4823919,163.045649 46.4457522,168.870621 51.5313666,176.641416 L51.5313666,176.641416 C53.7046907,179.962022 62.4048517,187.460242 58.9278912,192 L58.9278912,192 C65.2481996,183.748031 71.9281421,175.745725 77.6709467,167.070608 L77.6709467,167.070608 C82.3942408,159.935427 89.5143993,149.499874 84.6675463,140.711978 L84.6675463,140.711978 C83.1600675,137.979077 80.3567121,135.941602 79.5881994,132.917377 L79.5881994,132.917377 C78.2012951,127.456634 83.5823764,122.394041 85.5828971,117.748347 L85.5828971,117.748347 C88.7238012,110.453965 86.4185615,101.982387 80.8861652,96.5073603 L80.8861652,96.5073603 C78.2681482,93.9166985 75.4280833,91.0680417 75.0433793,87.4102867 L75.0433793,87.4102867 C74.623458,83.4168705 77.1346293,79.6930545 78.2741173,76.0094108 L78.2741173,76.0094108 C79.3243682,72.6135191 79.9791709,69.0027805 80.3626812,65.475362 L80.3626812,65.475362 C80.6333767,62.9843868 80.7375363,60.4359802 80.1501837,57.9997583 L80.1501837,57.9997583 C79.0327811,53.3668598 74.8484904,50.7913742 71.7511603,47.5040963 L71.7511603,47.5040963 C64.3779149,39.6782503 68.2536066,30.4761339 65.0324191,21.3811433 L65.0324191,21.3811433 C62.4561854,14.1072934 57.1879187,14.1864475 51.818477,14.2653041 L51.818477,14.2653041 C51.1603913,14.2754215 50.5014103,14.2849438 49.8454138,14.2807778 L49.8454138,14.2807778 C45.9464428,14.2581624 42.1617788,13.7582414 39.4912343,9.94485625 L39.4912343,9.94485625 C35.8820598,4.79150439 30.9638768,0 25.3219488,0 L25.3219488,0 C22.7692927,0 20.0692016,0.98020223 17.2739044,3.35125591" id="path-9"></path>
        <path d="M17.2739044,3.35125591 C12.0984562,7.74103803 15.9899659,16.7723482 11.535875,21.1163042 L11.535875,21.1163042 C7.59691152,24.9579587 2.58799924,24.3229401 0.573451313,30.6990153 L0.573451313,30.6990153 C-2.39017253,40.0790798 6.95016702,48.2977208 9.94841125,56.4086408 L9.94841125,56.4086408 C12.4646562,63.2156003 6.80571648,65.8092378 4.26320776,71.1134587 L4.26320776,71.1134587 C2.30327647,75.2026931 3.31055043,79.5823577 5.44686659,83.4915611 L5.44686659,83.4915611 C9.21332509,90.3848164 17.5637009,95.9345342 15.629138,104.860504 L15.629138,104.860504 C14.0148135,112.309624 12.5130054,118.948753 19.1055016,124.594884 L19.1055016,124.594884 C23.6246548,128.465105 32.0099495,131.992226 31.3709647,139.155677 L31.3709647,139.155677 C31.1447384,141.690693 29.3850681,143.851363 28.9027704,146.350372 L28.9027704,146.350372 C28.1393314,150.305402 30.7087007,154.154496 33.6926193,156.869245 L33.6926193,156.869245 C40.4823919,163.045649 46.4457522,168.870621 51.5313666,176.641416 L51.5313666,176.641416 C53.7046907,179.962022 62.4048517,187.460242 58.9278912,192 L58.9278912,192 C65.2481996,183.748031 71.9281421,175.745725 77.6709467,167.070608 L77.6709467,167.070608 C82.3942408,159.935427 89.5143993,149.499874 84.6675463,140.711978 L84.6675463,140.711978 C83.1600675,137.979077 80.3567121,135.941602 79.5881994,132.917377 L79.5881994,132.917377 C78.2012951,127.456634 83.5823764,122.394041 85.5828971,117.748347 L85.5828971,117.748347 C88.7238012,110.453965 86.4185615,101.982387 80.8861652,96.5073603 L80.8861652,96.5073603 C78.2681482,93.9166985 75.4280833,91.0680417 75.0433793,87.4102867 L75.0433793,87.4102867 C74.623458,83.4168705 77.1346293,79.6930545 78.2741173,76.0094108 L78.2741173,76.0094108 C79.3243682,72.6135191 79.9791709,69.0027805 80.3626812,65.475362 L80.3626812,65.475362 C80.6333767,62.9843868 80.7375363,60.4359802 80.1501837,57.9997583 L80.1501837,57.9997583 C79.0327811,53.3668598 74.8484904,50.7913742 71.7511603,47.5040963 L71.7511603,47.5040963 C64.3779149,39.6782503 68.2536066,30.4761339 65.0324191,21.3811433 L65.0324191,21.3811433 C62.4561854,14.1072934 57.1879187,14.1864475 51.818477,14.2653041 L51.818477,14.2653041 C51.1603913,14.2754215 50.5014103,14.2849438 49.8454138,14.2807778 L49.8454138,14.2807778 C45.9464428,14.2581624 42.1617788,13.7582414 39.4912343,9.94485625 L39.4912343,9.94485625 C35.8820598,4.79150439 30.9638768,0 25.3219488,0 L25.3219488,0 C22.7692927,0 20.0692016,0.98020223 17.2739044,3.35125591" id="path-11"></path>
        <path d="M17.2739044,3.35125591 C12.0984562,7.74103803 15.9899659,16.7723482 11.535875,21.1163042 L11.535875,21.1163042 C7.59691152,24.9579587 2.58799924,24.3229401 0.573451313,30.6990153 L0.573451313,30.6990153 C-2.39017253,40.0790798 6.95016702,48.2977208 9.94841125,56.4086408 L9.94841125,56.4086408 C12.4646562,63.2156003 6.80571648,65.8092378 4.26320776,71.1134587 L4.26320776,71.1134587 C2.30327647,75.2026931 3.31055043,79.5823577 5.44686659,83.4915611 L5.44686659,83.4915611 C9.21332509,90.3848164 17.5637009,95.9345342 15.629138,104.860504 L15.629138,104.860504 C14.0148135,112.309624 12.5130054,118.948753 19.1055016,124.594884 L19.1055016,124.594884 C23.6246548,128.465105 32.0099495,131.992226 31.3709647,139.155677 L31.3709647,139.155677 C31.1447384,141.690693 29.3850681,143.851363 28.9027704,146.350372 L28.9027704,146.350372 C28.1393314,150.305402 30.7087007,154.154496 33.6926193,156.869245 L33.6926193,156.869245 C40.4823919,163.045649 46.4457522,168.870621 51.5313666,176.641416 L51.5313666,176.641416 C53.7046907,179.962022 62.4048517,187.460242 58.9278912,192 L58.9278912,192 C65.2481996,183.748031 71.9281421,175.745725 77.6709467,167.070608 L77.6709467,167.070608 C82.3942408,159.935427 89.5143993,149.499874 84.6675463,140.711978 L84.6675463,140.711978 C83.1600675,137.979077 80.3567121,135.941602 79.5881994,132.917377 L79.5881994,132.917377 C78.2012951,127.456634 83.5823764,122.394041 85.5828971,117.748347 L85.5828971,117.748347 C88.7238012,110.453965 86.4185615,101.982387 80.8861652,96.5073603 L80.8861652,96.5073603 C78.2681482,93.9166985 75.4280833,91.0680417 75.0433793,87.4102867 L75.0433793,87.4102867 C74.623458,83.4168705 77.1346293,79.6930545 78.2741173,76.0094108 L78.2741173,76.0094108 C79.3243682,72.6135191 79.9791709,69.0027805 80.3626812,65.475362 L80.3626812,65.475362 C80.6333767,62.9843868 80.7375363,60.4359802 80.1501837,57.9997583 L80.1501837,57.9997583 C79.0327811,53.3668598 74.8484904,50.7913742 71.7511603,47.5040963 L71.7511603,47.5040963 C64.3779149,39.6782503 68.2536066,30.4761339 65.0324191,21.3811433 L65.0324191,21.3811433 C62.4561854,14.1072934 57.1879187,14.1864475 51.818477,14.2653041 L51.818477,14.2653041 C51.1603913,14.2754215 50.5014103,14.2849438 49.8454138,14.2807778 L49.8454138,14.2807778 C45.9464428,14.2581624 42.1617788,13.7582414 39.4912343,9.94485625 L39.4912343,9.94485625 C35.8820598,4.79150439 30.9638768,0 25.3219488,0 L25.3219488,0 C22.7692927,0 20.0692016,0.98020223 17.2739044,3.35125591" id="path-13"></path>
        <path d="M52.7882829,5.3990104 C50.3409997,7.80072343 47.5484615,7.64094706 44.7396377,7.11839488 L44.7396377,7.11839488 C40.4082574,6.31265697 36.0374954,4.6451402 32.8318949,10.1779931 L32.8318949,10.1779931 C29.2612006,16.3419029 30.783165,23.5640331 24.3989093,28.231232 L24.3989093,28.231232 C21.7171133,30.1917714 18.3510255,31.4845888 16.9087126,34.6965111 L16.9087126,34.6965111 C16.1506914,36.3854903 15.8747243,38.2518333 15.7263772,40.0993966 L15.7263772,40.0993966 C15.516737,42.7154365 15.4903839,45.42925 15.7784912,48.042309 L15.7784912,48.042309 C16.0908788,50.8765509 17.3854369,53.9295911 16.5332552,56.773372 L16.5332552,56.773372 C15.7527303,59.3777864 13.3164029,61.0551401 11.0755028,62.5756984 L11.0755028,62.5756984 C6.33964702,65.7894092 3.51424153,71.6266122 4.7697141,77.3609741 L4.7697141,77.3609741 C5.56948567,81.0131756 8.74488375,85.4359404 6.9949208,89.2124456 L6.9949208,89.2124456 C6.02518668,91.3035486 3.72713888,92.3960493 2.26587541,94.1735614 L2.26587541,94.1735614 C-2.43267148,99.8891436 1.2540948,108.456555 3.6705834,114.294056 L3.6705834,114.294056 C6.60880376,121.391883 10.3139284,128.129914 13.725912,135 L13.725912,135 C11.8486251,131.220216 19.1428024,126.974815 21.1642909,124.862547 L21.1642909,124.862547 C25.8945207,119.919019 30.9883637,116.510655 36.7250443,112.961295 L36.7250443,112.961295 C39.246353,111.401388 41.6255328,108.959433 41.6210912,105.980021 L41.6210912,105.980021 C41.6181302,104.097283 40.6495805,102.284001 40.8358287,100.410801 L40.8358287,100.410801 C41.3625942,95.1173151 47.8827607,93.7139063 51.668129,91.526222 L51.668129,91.526222 C57.1901356,88.3351661 57.0237262,83.3031048 56.8878154,77.6671127 L56.8878154,77.6671127 C56.7249593,70.9135804 63.4991813,68.0355191 67.1590023,63.5474726 L67.1590023,63.5474726 C69.2346775,61.00208 70.5632873,57.9588768 69.7158433,54.7165493 L69.7158433,54.7165493 C68.6164165,50.5107942 64.9009283,47.8437809 67.6493473,43.2454409 L67.6493473,43.2454409 C70.9242356,37.7665424 78.7783418,33.0856314 77.937412,25.8602222 L77.937412,25.8602222 C77.365639,20.9485894 73.673839,20.7175695 71.3680926,17.3813436 L71.3680926,17.3813436 C68.7606182,13.6090117 72.8050757,7.5849061 69.6853448,3.67932784 L69.6853448,3.67932784 C67.5732491,1.03556554 65.2672065,0 62.9543536,0 L62.9543536,0 C59.3433895,0 55.7161397,2.52542054 52.7882829,5.3990104" id="path-15"></path>
        <path d="M52.7882829,5.3990104 C50.3409997,7.80072343 47.5484615,7.64094706 44.7396377,7.11839488 L44.7396377,7.11839488 C40.4082574,6.31265697 36.0374954,4.6451402 32.8318949,10.1779931 L32.8318949,10.1779931 C29.2612006,16.3419029 30.783165,23.5640331 24.3989093,28.231232 L24.3989093,28.231232 C21.7171133,30.1917714 18.3510255,31.4845888 16.9087126,34.6965111 L16.9087126,34.6965111 C16.1506914,36.3854903 15.8747243,38.2518333 15.7263772,40.0993966 L15.7263772,40.0993966 C15.516737,42.7154365 15.4903839,45.42925 15.7784912,48.042309 L15.7784912,48.042309 C16.0908788,50.8765509 17.3854369,53.9295911 16.5332552,56.773372 L16.5332552,56.773372 C15.7527303,59.3777864 13.3164029,61.0551401 11.0755028,62.5756984 L11.0755028,62.5756984 C6.33964702,65.7894092 3.51424153,71.6266122 4.7697141,77.3609741 L4.7697141,77.3609741 C5.56948567,81.0131756 8.74488375,85.4359404 6.9949208,89.2124456 L6.9949208,89.2124456 C6.02518668,91.3035486 3.72713888,92.3960493 2.26587541,94.1735614 L2.26587541,94.1735614 C-2.43267148,99.8891436 1.2540948,108.456555 3.6705834,114.294056 L3.6705834,114.294056 C6.60880376,121.391883 10.3139284,128.129914 13.725912,135 L13.725912,135 C11.8486251,131.220216 19.1428024,126.974815 21.1642909,124.862547 L21.1642909,124.862547 C25.8945207,119.919019 30.9883637,116.510655 36.7250443,112.961295 L36.7250443,112.961295 C39.246353,111.401388 41.6255328,108.959433 41.6210912,105.980021 L41.6210912,105.980021 C41.6181302,104.097283 40.6495805,102.284001 40.8358287,100.410801 L40.8358287,100.410801 C41.3625942,95.1173151 47.8827607,93.7139063 51.668129,91.526222 L51.668129,91.526222 C57.1901356,88.3351661 57.0237262,83.3031048 56.8878154,77.6671127 L56.8878154,77.6671127 C56.7249593,70.9135804 63.4991813,68.0355191 67.1590023,63.5474726 L67.1590023,63.5474726 C69.2346775,61.00208 70.5632873,57.9588768 69.7158433,54.7165493 L69.7158433,54.7165493 C68.6164165,50.5107942 64.9009283,47.8437809 67.6493473,43.2454409 L67.6493473,43.2454409 C70.9242356,37.7665424 78.7783418,33.0856314 77.937412,25.8602222 L77.937412,25.8602222 C77.365639,20.9485894 73.673839,20.7175695 71.3680926,17.3813436 L71.3680926,17.3813436 C68.7606182,13.6090117 72.8050757,7.5849061 69.6853448,3.67932784 L69.6853448,3.67932784 C67.5732491,1.03556554 65.2672065,0 62.9543536,0 L62.9543536,0 C59.3433895,0 55.7161397,2.52542054 52.7882829,5.3990104" id="path-17"></path>
        <path d="M52.7882829,5.3990104 C50.3409997,7.80072343 47.5484615,7.64094706 44.7396377,7.11839488 L44.7396377,7.11839488 C40.4082574,6.31265697 36.0374954,4.6451402 32.8318949,10.1779931 L32.8318949,10.1779931 C29.2612006,16.3419029 30.783165,23.5640331 24.3989093,28.231232 L24.3989093,28.231232 C21.7171133,30.1917714 18.3510255,31.4845888 16.9087126,34.6965111 L16.9087126,34.6965111 C16.1506914,36.3854903 15.8747243,38.2518333 15.7263772,40.0993966 L15.7263772,40.0993966 C15.516737,42.7154365 15.4903839,45.42925 15.7784912,48.042309 L15.7784912,48.042309 C16.0908788,50.8765509 17.3854369,53.9295911 16.5332552,56.773372 L16.5332552,56.773372 C15.7527303,59.3777864 13.3164029,61.0551401 11.0755028,62.5756984 L11.0755028,62.5756984 C6.33964702,65.7894092 3.51424153,71.6266122 4.7697141,77.3609741 L4.7697141,77.3609741 C5.56948567,81.0131756 8.74488375,85.4359404 6.9949208,89.2124456 L6.9949208,89.2124456 C6.02518668,91.3035486 3.72713888,92.3960493 2.26587541,94.1735614 L2.26587541,94.1735614 C-2.43267148,99.8891436 1.2540948,108.456555 3.6705834,114.294056 L3.6705834,114.294056 C6.60880376,121.391883 10.3139284,128.129914 13.725912,135 L13.725912,135 C11.8486251,131.220216 19.1428024,126.974815 21.1642909,124.862547 L21.1642909,124.862547 C25.8945207,119.919019 30.9883637,116.510655 36.7250443,112.961295 L36.7250443,112.961295 C39.246353,111.401388 41.6255328,108.959433 41.6210912,105.980021 L41.6210912,105.980021 C41.6181302,104.097283 40.6495805,102.284001 40.8358287,100.410801 L40.8358287,100.410801 C41.3625942,95.1173151 47.8827607,93.7139063 51.668129,91.526222 L51.668129,91.526222 C57.1901356,88.3351661 57.0237262,83.3031048 56.8878154,77.6671127 L56.8878154,77.6671127 C56.7249593,70.9135804 63.4991813,68.0355191 67.1590023,63.5474726 L67.1590023,63.5474726 C69.2346775,61.00208 70.5632873,57.9588768 69.7158433,54.7165493 L69.7158433,54.7165493 C68.6164165,50.5107942 64.9009283,47.8437809 67.6493473,43.2454409 L67.6493473,43.2454409 C70.9242356,37.7665424 78.7783418,33.0856314 77.937412,25.8602222 L77.937412,25.8602222 C77.365639,20.9485894 73.673839,20.7175695 71.3680926,17.3813436 L71.3680926,17.3813436 C68.7606182,13.6090117 72.8050757,7.5849061 69.6853448,3.67932784 L69.6853448,3.67932784 C67.5732491,1.03556554 65.2672065,0 62.9543536,0 L62.9543536,0 C59.3433895,0 55.7161397,2.52542054 52.7882829,5.3990104" id="path-19"></path>
        <path d="M52.7882829,5.3990104 C50.3409997,7.80072343 47.5484615,7.64094706 44.7396377,7.11839488 L44.7396377,7.11839488 C40.4082574,6.31265697 36.0374954,4.6451402 32.8318949,10.1779931 L32.8318949,10.1779931 C29.2612006,16.3419029 30.783165,23.5640331 24.3989093,28.231232 L24.3989093,28.231232 C21.7171133,30.1917714 18.3510255,31.4845888 16.9087126,34.6965111 L16.9087126,34.6965111 C16.1506914,36.3854903 15.8747243,38.2518333 15.7263772,40.0993966 L15.7263772,40.0993966 C15.516737,42.7154365 15.4903839,45.42925 15.7784912,48.042309 L15.7784912,48.042309 C16.0908788,50.8765509 17.3854369,53.9295911 16.5332552,56.773372 L16.5332552,56.773372 C15.7527303,59.3777864 13.3164029,61.0551401 11.0755028,62.5756984 L11.0755028,62.5756984 C6.33964702,65.7894092 3.51424153,71.6266122 4.7697141,77.3609741 L4.7697141,77.3609741 C5.56948567,81.0131756 8.74488375,85.4359404 6.9949208,89.2124456 L6.9949208,89.2124456 C6.02518668,91.3035486 3.72713888,92.3960493 2.26587541,94.1735614 L2.26587541,94.1735614 C-2.43267148,99.8891436 1.2540948,108.456555 3.6705834,114.294056 L3.6705834,114.294056 C6.60880376,121.391883 10.3139284,128.129914 13.725912,135 L13.725912,135 C11.8486251,131.220216 19.1428024,126.974815 21.1642909,124.862547 L21.1642909,124.862547 C25.8945207,119.919019 30.9883637,116.510655 36.7250443,112.961295 L36.7250443,112.961295 C39.246353,111.401388 41.6255328,108.959433 41.6210912,105.980021 L41.6210912,105.980021 C41.6181302,104.097283 40.6495805,102.284001 40.8358287,100.410801 L40.8358287,100.410801 C41.3625942,95.1173151 47.8827607,93.7139063 51.668129,91.526222 L51.668129,91.526222 C57.1901356,88.3351661 57.0237262,83.3031048 56.8878154,77.6671127 L56.8878154,77.6671127 C56.7249593,70.9135804 63.4991813,68.0355191 67.1590023,63.5474726 L67.1590023,63.5474726 C69.2346775,61.00208 70.5632873,57.9588768 69.7158433,54.7165493 L69.7158433,54.7165493 C68.6164165,50.5107942 64.9009283,47.8437809 67.6493473,43.2454409 L67.6493473,43.2454409 C70.9242356,37.7665424 78.7783418,33.0856314 77.937412,25.8602222 L77.937412,25.8602222 C77.365639,20.9485894 73.673839,20.7175695 71.3680926,17.3813436 L71.3680926,17.3813436 C68.7606182,13.6090117 72.8050757,7.5849061 69.6853448,3.67932784 L69.6853448,3.67932784 C67.5732491,1.03556554 65.2672065,0 62.9543536,0 L62.9543536,0 C59.3433895,0 55.7161397,2.52542054 52.7882829,5.3990104" id="path-21"></path>
        <path d="M52.7882829,5.3990104 C50.3409997,7.80072343 47.5484615,7.64094706 44.7396377,7.11839488 L44.7396377,7.11839488 C40.4082574,6.31265697 36.0374954,4.6451402 32.8318949,10.1779931 L32.8318949,10.1779931 C29.2612006,16.3419029 30.783165,23.5640331 24.3989093,28.231232 L24.3989093,28.231232 C21.7171133,30.1917714 18.3510255,31.4845888 16.9087126,34.6965111 L16.9087126,34.6965111 C16.1506914,36.3854903 15.8747243,38.2518333 15.7263772,40.0993966 L15.7263772,40.0993966 C15.516737,42.7154365 15.4903839,45.42925 15.7784912,48.042309 L15.7784912,48.042309 C16.0908788,50.8765509 17.3854369,53.9295911 16.5332552,56.773372 L16.5332552,56.773372 C15.7527303,59.3777864 13.3164029,61.0551401 11.0755028,62.5756984 L11.0755028,62.5756984 C6.33964702,65.7894092 3.51424153,71.6266122 4.7697141,77.3609741 L4.7697141,77.3609741 C5.56948567,81.0131756 8.74488375,85.4359404 6.9949208,89.2124456 L6.9949208,89.2124456 C6.02518668,91.3035486 3.72713888,92.3960493 2.26587541,94.1735614 L2.26587541,94.1735614 C-2.43267148,99.8891436 1.2540948,108.456555 3.6705834,114.294056 L3.6705834,114.294056 C6.60880376,121.391883 10.3139284,128.129914 13.725912,135 L13.725912,135 C11.8486251,131.220216 19.1428024,126.974815 21.1642909,124.862547 L21.1642909,124.862547 C25.8945207,119.919019 30.9883637,116.510655 36.7250443,112.961295 L36.7250443,112.961295 C39.246353,111.401388 41.6255328,108.959433 41.6210912,105.980021 L41.6210912,105.980021 C41.6181302,104.097283 40.6495805,102.284001 40.8358287,100.410801 L40.8358287,100.410801 C41.3625942,95.1173151 47.8827607,93.7139063 51.668129,91.526222 L51.668129,91.526222 C57.1901356,88.3351661 57.0237262,83.3031048 56.8878154,77.6671127 L56.8878154,77.6671127 C56.7249593,70.9135804 63.4991813,68.0355191 67.1590023,63.5474726 L67.1590023,63.5474726 C69.2346775,61.00208 70.5632873,57.9588768 69.7158433,54.7165493 L69.7158433,54.7165493 C68.6164165,50.5107942 64.9009283,47.8437809 67.6493473,43.2454409 L67.6493473,43.2454409 C70.9242356,37.7665424 78.7783418,33.0856314 77.937412,25.8602222 L77.937412,25.8602222 C77.365639,20.9485894 73.673839,20.7175695 71.3680926,17.3813436 L71.3680926,17.3813436 C68.7606182,13.6090117 72.8050757,7.5849061 69.6853448,3.67932784 L69.6853448,3.67932784 C67.5732491,1.03556554 65.2672065,0 62.9543536,0 L62.9543536,0 C59.3433895,0 55.7161397,2.52542054 52.7882829,5.3990104" id="path-23"></path>
        <path d="M52.7882829,5.3990104 C50.3409997,7.80072343 47.5484615,7.64094706 44.7396377,7.11839488 L44.7396377,7.11839488 C40.4082574,6.31265697 36.0374954,4.6451402 32.8318949,10.1779931 L32.8318949,10.1779931 C29.2612006,16.3419029 30.783165,23.5640331 24.3989093,28.231232 L24.3989093,28.231232 C21.7171133,30.1917714 18.3510255,31.4845888 16.9087126,34.6965111 L16.9087126,34.6965111 C16.1506914,36.3854903 15.8747243,38.2518333 15.7263772,40.0993966 L15.7263772,40.0993966 C15.516737,42.7154365 15.4903839,45.42925 15.7784912,48.042309 L15.7784912,48.042309 C16.0908788,50.8765509 17.3854369,53.9295911 16.5332552,56.773372 L16.5332552,56.773372 C15.7527303,59.3777864 13.3164029,61.0551401 11.0755028,62.5756984 L11.0755028,62.5756984 C6.33964702,65.7894092 3.51424153,71.6266122 4.7697141,77.3609741 L4.7697141,77.3609741 C5.56948567,81.0131756 8.74488375,85.4359404 6.9949208,89.2124456 L6.9949208,89.2124456 C6.02518668,91.3035486 3.72713888,92.3960493 2.26587541,94.1735614 L2.26587541,94.1735614 C-2.43267148,99.8891436 1.2540948,108.456555 3.6705834,114.294056 L3.6705834,114.294056 C6.60880376,121.391883 10.3139284,128.129914 13.725912,135 L13.725912,135 C11.8486251,131.220216 19.1428024,126.974815 21.1642909,124.862547 L21.1642909,124.862547 C25.8945207,119.919019 30.9883637,116.510655 36.7250443,112.961295 L36.7250443,112.961295 C39.246353,111.401388 41.6255328,108.959433 41.6210912,105.980021 L41.6210912,105.980021 C41.6181302,104.097283 40.6495805,102.284001 40.8358287,100.410801 L40.8358287,100.410801 C41.3625942,95.1173151 47.8827607,93.7139063 51.668129,91.526222 L51.668129,91.526222 C57.1901356,88.3351661 57.0237262,83.3031048 56.8878154,77.6671127 L56.8878154,77.6671127 C56.7249593,70.9135804 63.4991813,68.0355191 67.1590023,63.5474726 L67.1590023,63.5474726 C69.2346775,61.00208 70.5632873,57.9588768 69.7158433,54.7165493 L69.7158433,54.7165493 C68.6164165,50.5107942 64.9009283,47.8437809 67.6493473,43.2454409 L67.6493473,43.2454409 C70.9242356,37.7665424 78.7783418,33.0856314 77.937412,25.8602222 L77.937412,25.8602222 C77.365639,20.9485894 73.673839,20.7175695 71.3680926,17.3813436 L71.3680926,17.3813436 C68.7606182,13.6090117 72.8050757,7.5849061 69.6853448,3.67932784 L69.6853448,3.67932784 C67.5732491,1.03556554 65.2672065,0 62.9543536,0 L62.9543536,0 C59.3433895,0 55.7161397,2.52542054 52.7882829,5.3990104" id="path-25"></path>
        <path d="M52.7882829,5.3990104 C50.3409997,7.80072343 47.5484615,7.64094706 44.7396377,7.11839488 L44.7396377,7.11839488 C40.4082574,6.31265697 36.0374954,4.6451402 32.8318949,10.1779931 L32.8318949,10.1779931 C29.2612006,16.3419029 30.783165,23.5640331 24.3989093,28.231232 L24.3989093,28.231232 C21.7171133,30.1917714 18.3510255,31.4845888 16.9087126,34.6965111 L16.9087126,34.6965111 C16.1506914,36.3854903 15.8747243,38.2518333 15.7263772,40.0993966 L15.7263772,40.0993966 C15.516737,42.7154365 15.4903839,45.42925 15.7784912,48.042309 L15.7784912,48.042309 C16.0908788,50.8765509 17.3854369,53.9295911 16.5332552,56.773372 L16.5332552,56.773372 C15.7527303,59.3777864 13.3164029,61.0551401 11.0755028,62.5756984 L11.0755028,62.5756984 C6.33964702,65.7894092 3.51424153,71.6266122 4.7697141,77.3609741 L4.7697141,77.3609741 C5.56948567,81.0131756 8.74488375,85.4359404 6.9949208,89.2124456 L6.9949208,89.2124456 C6.02518668,91.3035486 3.72713888,92.3960493 2.26587541,94.1735614 L2.26587541,94.1735614 C-2.43267148,99.8891436 1.2540948,108.456555 3.6705834,114.294056 L3.6705834,114.294056 C6.60880376,121.391883 10.3139284,128.129914 13.725912,135 L13.725912,135 C11.8486251,131.220216 19.1428024,126.974815 21.1642909,124.862547 L21.1642909,124.862547 C25.8945207,119.919019 30.9883637,116.510655 36.7250443,112.961295 L36.7250443,112.961295 C39.246353,111.401388 41.6255328,108.959433 41.6210912,105.980021 L41.6210912,105.980021 C41.6181302,104.097283 40.6495805,102.284001 40.8358287,100.410801 L40.8358287,100.410801 C41.3625942,95.1173151 47.8827607,93.7139063 51.668129,91.526222 L51.668129,91.526222 C57.1901356,88.3351661 57.0237262,83.3031048 56.8878154,77.6671127 L56.8878154,77.6671127 C56.7249593,70.9135804 63.4991813,68.0355191 67.1590023,63.5474726 L67.1590023,63.5474726 C69.2346775,61.00208 70.5632873,57.9588768 69.7158433,54.7165493 L69.7158433,54.7165493 C68.6164165,50.5107942 64.9009283,47.8437809 67.6493473,43.2454409 L67.6493473,43.2454409 C70.9242356,37.7665424 78.7783418,33.0856314 77.937412,25.8602222 L77.937412,25.8602222 C77.365639,20.9485894 73.673839,20.7175695 71.3680926,17.3813436 L71.3680926,17.3813436 C68.7606182,13.6090117 72.8050757,7.5849061 69.6853448,3.67932784 L69.6853448,3.67932784 C67.5732491,1.03556554 65.2672065,0 62.9543536,0 L62.9543536,0 C59.3433895,0 55.7161397,2.52542054 52.7882829,5.3990104" id="path-27"></path>
        <polygon id="path-29" points="0 0 57.8735741 0 57.8735741 57.7770883 0 57.7770883"></polygon>
        <polygon id="path-31" points="0 262 143 262 143 0 0 0"></polygon>
        <polygon id="path-33" points="0 476 368 476 368 0 0 0"></polygon>
        <path d="M52.9999227,0.0021566562 C52.9132036,0.0021566562 52.8257794,0 52.7387078,0 L52.7387078,0 L52.7387078,0.00392505141 C46.0341929,0.0148891017 39.3434261,0.54293191 32.7429037,1.71856104 L32.7429037,1.71856104 C28.8525295,2.41177196 25.0019897,3.47139437 21.1020976,4.08042968 L21.1020976,4.08042968 C10.1603321,5.79011417 9.11829274,9.04572974 6.81812134,20.2573554 L6.81812134,20.2573554 C4.49609391,31.5779141 2.16102337,43.0254436 2.43175618,54.6469833 L2.43175618,54.6469833 C2.74831617,68.2215385 7.94899488,77.8352423 12.1883606,90.0212536 L12.1883606,90.0212536 C16.1809646,101.498492 13.8127575,117.309006 10.3348278,128.396491 L10.3348278,128.396491 C7.77167899,136.56683 3.30846519,143.035974 0.343094804,150.942115 L0.343094804,150.942115 C0.111491339,151.559285 -0.113766825,152.234458 0.0639015865,152.878154 L0.0639015865,152.878154 C0.292332401,153.704702 1.09466038,154.191364 1.83106775,154.577228 L1.83106775,154.577228 C16.3727337,162.199365 32.6709903,164.491913 48.6107374,165.670371 L48.6107374,165.670371 C50.0109337,165.773999 51.3734107,165.873737 52.7182618,165.961803 L52.7182618,165.961803 L52.7182618,166 C52.8113262,165.993987 52.9068583,165.986914 52.9999227,165.980901 L52.9999227,165.980901 C53.0933396,165.986914 53.1888716,165.993987 53.281936,166 L53.281936,166 L53.281936,165.961803 C54.6267872,165.873737 55.9892642,165.773999 57.3894605,165.670371 L57.3894605,165.670371 C73.3292076,164.491913 89.6274642,162.199365 104.16913,154.577228 L104.16913,154.577228 C104.90589,154.191364 105.707865,153.704702 105.935944,152.878154 L105.935944,152.878154 C106.113965,152.234458 105.888354,151.559285 105.657103,150.942115 L105.657103,150.942115 C102.691733,143.035974 98.2285189,136.56683 95.6657225,128.396491 L95.6657225,128.396491 C92.1874404,117.309006 89.8192332,101.498492 93.8118373,90.0212536 L93.8118373,90.0212536 C98.051203,77.8352423 103.251882,68.2215385 103.568442,54.6469833 L103.568442,54.6469833 C103.838822,43.0254436 101.504456,31.5779141 99.1820765,20.2573554 L99.1820765,20.2573554 C96.8819051,9.04572974 95.8402183,5.79011417 84.8981003,4.08042968 L84.8981003,4.08042968 C80.9982081,3.47139437 77.1476684,2.41177196 73.2569417,1.71856104 L73.2569417,1.71856104 C66.6571242,0.54293191 59.9663575,0.0148891017 53.26149,0.00392505141 L53.26149,0.00392505141 L53.26149,0 C53.2558498,0 53.249857,0 53.2442167,0 L53.2442167,0 C53.1627854,0 53.081354,0.0021566562 52.9999227,0.0021566562" id="path-35"></path>
        <polygon id="path-37" points="0 476 368 476 368 0 0 0"></polygon>
        <polygon id="path-39" points="0 0 116 0 116 85 0 85"></polygon>
        <polygon id="path-41" points="0 0 79 0 79 25 0 25"></polygon>
        <polygon id="path-43" points="0 0 79 0 79 37 0 37"></polygon>
    </defs>
    <g id="Final-Pages" stroke="none" stroke-width="1" fill="none" fill-rule="evenodd">
        <g id="Contact-us" transform="translate(-839.000000, -239.000000)">
            <g id="Group-4" transform="translate(839.000000, 239.000000)">
                <ellipse id="Oval" fill="#E8E8E8" cx="240.5" cy="493.5" rx="240.5" ry="17.5"></ellipse>
                <g id="Group-56" transform="translate(0.000000, 231.000000)">
                    <path d="M56.8453414,20.2808047 C52.946369,20.2581892 49.162002,19.7582675 46.4911582,15.9445789 C41.2491533,8.45944149 33.247366,1.73966039 24.2738201,9.35126613 C19.0986684,13.7410549 22.9901795,22.7723788 18.536087,27.1163415 C14.5968236,30.9577043 9.58790948,30.3226847 7.57336081,36.6990672 C4.61003432,46.0788484 13.9500789,54.2977995 16.9486226,62.4087318 C19.4648685,69.2154041 13.8056283,71.8093431 11.2631186,77.1135721 C9.3031866,81.2025152 10.3107594,85.5824841 12.4467779,89.4916934 C16.2132378,96.3849592 24.5639151,101.934685 22.6293514,110.860371 C21.014728,118.3098 19.5132177,124.948939 26.1057163,130.595079 C30.6245728,134.465306 39.0098705,137.992432 38.3708855,145.155596 C38.1446592,147.690616 36.3852867,149.851289 35.9026903,152.350303 C35.1395495,156.305338 37.7089198,160.154736 40.6928394,162.869192 C47.4823161,169.045903 53.4456786,174.870884 58.5315933,182.641691 C60.7046198,185.962302 69.4050824,193.460235 65.9278222,198 C72.2481329,189.748018 78.9280778,181.745998 84.671183,173.07057 C89.3944789,165.935676 96.5143416,155.49981 91.6674867,146.7119 C90.1603059,143.978995 87.356651,141.941814 86.5884365,138.917585 C85.2015316,133.456833 90.582615,128.393935 92.582838,123.748234 C95.7237432,116.454138 93.418801,107.982548 87.8861043,102.507512 C85.2683848,99.9168466 82.4280204,97.067888 82.0433162,93.410425 C81.6233947,89.4170027 84.1348654,85.693181 85.2743538,82.0095316 C86.3246052,78.6133373 86.9791097,75.0028907 87.3626201,71.4754669 C87.6333157,68.9844879 87.7377738,66.4357798 87.1501225,63.9998517 C86.0327195,59.3669462 81.8484273,56.7914567 78.751096,53.5041738 C71.3778479,45.6783159 75.2535411,36.4761854 72.0323523,27.381181 C69.1409527,19.216388 62.8570531,20.3159183 56.8453414,20.2808047" id="Fill-1" fill="#95A8CC"></path>
                    <g id="Group-24" transform="translate(7.000000, 6.000000)">
                        <g id="Group-5">
                            <mask id="mask-2" fill="white">
                                <use xlink:href="#path-1"></use>
                            </mask>
                            <g id="Clip-4"></g>
                            <path d="M59.7121323,201.302488 C62.4507237,170.013982 59.9353741,138.477302 54.1385497,107.663126 C48.6082426,78.2680715 41.3501995,48.7718423 30.3456941,20.9063077 C26.7096589,11.69943 22.6271402,2.66306115 17.9880094,-6.08615074" id="Stroke-3" stroke="#DBE4F2" stroke-width="5" mask="url(#mask-2)"></path>
                        </g>
                        <g id="Group-8">
                            <mask id="mask-4" fill="white">
                                <use xlink:href="#path-3"></use>
                            </mask>
                            <g id="Clip-7"></g>
                            <path d="M-6.78633394,35.8698941 C8.65972732,41.3059394 23.3921909,48.7532738 36.9189103,57.9634247 C40.3508046,60.3002576 42.2614914,61.0150256 45.1224479,64.0199076" id="Stroke-6" stroke="#DBE4F2" stroke-width="5" mask="url(#mask-4)"></path>
                        </g>
                        <g id="Group-11">
                            <mask id="mask-6" fill="white">
                                <use xlink:href="#path-5"></use>
                            </mask>
                            <g id="Clip-10"></g>
                            <path d="M52.4473144,97.5410957 C37.6223308,87.9887369 20.8096599,81.5180338 3.39232616,78.6616402" id="Stroke-9" stroke="#DBE4F2" stroke-width="5" mask="url(#mask-6)"></path>
                        </g>
                        <g id="Group-14">
                            <mask id="mask-8" fill="white">
                                <use xlink:href="#path-7"></use>
                            </mask>
                            <g id="Clip-13"></g>
                            <path d="M58.3105442,137.903285 C44.5137262,125.982254 27.6956831,117.56543 9.86439714,113.658012" id="Stroke-12" stroke="#DBE4F2" stroke-width="5" mask="url(#mask-8)"></path>
                        </g>
                        <g id="Group-17">
                            <mask id="mask-10" fill="white">
                                <use xlink:href="#path-9"></use>
                            </mask>
                            <g id="Clip-16"></g>
                            <path d="M44.3558154,62.9893265 C45.4341209,46.4353962 49.5661825,30.0838149 56.483394,14.996617" id="Stroke-15" stroke="#DBE4F2" stroke-width="5" mask="url(#mask-10)"></path>
                        </g>
                        <g id="Group-20">
                            <mask id="mask-12" fill="white">
                                <use xlink:href="#path-11"></use>
                            </mask>
                            <g id="Clip-19"></g>
                            <path d="M52.2583945,96.176609 C59.2687229,81.223021 69.3954822,67.7311065 81.8074851,56.8078336" id="Stroke-18" stroke="#DBE4F2" stroke-width="5" mask="url(#mask-12)"></path>
                        </g>
                        <g id="Group-23">
                            <mask id="mask-14" fill="white">
                                <use xlink:href="#path-13"></use>
                            </mask>
                            <g id="Clip-22"></g>
                            <path d="M59.2289691,139.05111 C60.1977428,134.431305 61.8968275,129.964154 64.2444473,125.865397 C66.975279,121.097401 70.5483409,116.868903 74.1864652,112.747233 C76.8065713,109.77925 79.4714452,106.850249 82.1801914,103.962313" id="Stroke-21" stroke="#DBE4F2" stroke-width="5" mask="url(#mask-14)"></path>
                        </g>
                    </g>
                    <path d="M104.739581,77.1185013 C107.548705,77.6410531 110.340952,77.8008293 112.788239,75.3991183 C117.59191,70.6848251 124.275832,66.908025 129.685329,73.6797352 C132.805361,77.5850121 128.760897,83.6091127 131.368079,87.3814415 C133.67383,90.7173665 137.365932,90.9486844 137.93741,95.8603131 C138.778341,103.085716 130.924518,107.766623 127.649328,113.245815 C124.901201,117.843853 128.616695,120.511163 129.715827,124.716616 C130.563273,127.958941 129.234661,131.002142 127.158982,133.547532 C123.499155,138.035575 116.725218,140.913634 116.888074,147.66716 C117.023985,153.303446 117.190099,158.335205 111.668083,161.526258 C107.883005,163.713941 101.362531,165.117646 100.835765,170.411128 C100.649517,172.284326 101.618068,174.097607 101.621029,175.980045 C101.625767,178.959455 99.2465828,181.401408 96.7249738,182.961313 C90.9882837,186.51067 85.8944322,189.919031 81.1638985,194.862556 C79.1427027,196.974821 71.8488095,201.220517 73.7258034,205 C70.3138141,198.12992 66.6086834,191.391894 63.6704582,184.294073 C61.2539656,178.456577 57.5674893,169.889173 62.2657478,164.173893 C63.7270137,162.396383 66.0250653,161.303585 66.9948011,159.212186 C68.7447669,155.435982 65.5696597,151.013221 64.7698868,147.361022 C63.514116,141.626665 66.3398223,135.789467 71.0753898,132.576057 C73.3162936,131.0555 75.7526251,129.378147 76.5331513,126.773437 C77.3853343,123.929659 76.0910702,120.876621 75.778386,118.042679 C75.4902782,115.429623 75.5166314,112.715513 75.7262719,110.099476 C75.8746193,108.251914 76.1505868,106.385572 76.9089054,104.696595 C78.3509246,101.484675 81.7173141,100.191859 84.3988184,98.2313208 C90.7830847,93.5641259 89.2614139,86.3420017 92.8321141,80.178395 C96.0374238,74.6452487 100.408193,76.3127641 104.739581,77.1185013" id="Fill-25" fill="#DBE4F2"></path>
                    <g id="Group-48" transform="translate(60.000000, 70.000000)">
                        <g id="Group-29">
                            <mask id="mask-16" fill="white">
                                <use xlink:href="#path-15"></use>
                            </mask>
                            <g id="Clip-28"></g>
                            <path d="M11.8801304,141.651079 C14.2187442,118.537162 20.3723364,95.9690483 28.7881481,74.379863 C36.8166583,53.7848087 46.1027138,33.3551944 57.8603329,14.6282716 C61.7448953,8.44111068 65.9276325,2.43936189 70.471318,-3.27681646" id="Stroke-27" stroke="#CBD4E9" stroke-width="5" mask="url(#mask-16)"></path>
                        </g>
                        <g id="Group-32">
                            <mask id="mask-18" fill="white">
                                <use xlink:href="#path-17"></use>
                            </mask>
                            <g id="Clip-31"></g>
                            <path d="M82.5217524,30.6349124 C70.6572405,32.4493876 59.029018,35.8243653 48.0258668,40.6468691 C45.234217,41.8702314 43.7605172,42.1253967 41.2877692,43.91364" id="Stroke-30" stroke="#CBD4E9" stroke-width="5" mask="url(#mask-18)"></path>
                        </g>
                        <g id="Group-35">
                            <mask id="mask-20" fill="white">
                                <use xlink:href="#path-19"></use>
                            </mask>
                            <g id="Clip-34"></g>
                            <path d="M31.3995014,67.2585768 C43.3842307,62.366916 56.3748186,59.9896464 69.3026329,60.3217189" id="Stroke-33" stroke="#CBD4E9" stroke-width="5" mask="url(#mask-20)"></path>
                        </g>
                        <g id="Group-38">
                            <mask id="mask-22" fill="white">
                                <use xlink:href="#path-21"></use>
                            </mask>
                            <g id="Clip-37"></g>
                            <path d="M21.6208506,95.7766311 C33.1919254,89.0219063 46.4543349,85.2307947 59.8248217,84.8566915" id="Stroke-36" stroke="#CBD4E9" stroke-width="5" mask="url(#mask-22)"></path>
                        </g>
                        <g id="Group-41">
                            <mask id="mask-24" fill="white">
                                <use xlink:href="#path-23"></use>
                            </mask>
                            <g id="Clip-40"></g>
                            <path d="M41.981477,43.2706295 C43.4853792,31.0930473 42.7637786,18.6400296 39.8637554,6.72089155" id="Stroke-39" stroke="#CBD4E9" stroke-width="5" mask="url(#mask-24)"></path>
                        </g>
                        <g id="Group-44">
                            <mask id="mask-26" fill="white">
                                <use xlink:href="#path-25"></use>
                            </mask>
                            <g id="Clip-43"></g>
                            <path d="M31.7233778,66.2932115 C28.7380772,54.458433 23.3084544,43.2544134 15.880143,33.6013574" id="Stroke-42" stroke="#CBD4E9" stroke-width="5" mask="url(#mask-26)"></path>
                        </g>
                        <g id="Group-47">
                            <mask id="mask-28" fill="white">
                                <use xlink:href="#path-27"></use>
                            </mask>
                            <g id="Clip-46"></g>
                            <path d="M20.8018028,96.4837309 C20.7408057,92.9927962 20.1332044,89.5119965 19.0086089,86.2091567 C17.699838,82.3670717 15.7109207,78.800422 13.6601181,75.3026312 C12.1834573,72.7834706 10.6688955,70.2869649 9.11732087,67.8140083" id="Stroke-45" stroke="#CBD4E9" stroke-width="5" mask="url(#mask-28)"></path>
                        </g>
                    </g>
                    <g id="Group-55">
                        <g id="Group-51" transform="translate(44.127014, 204.222912)">
                            <mask id="mask-30" fill="white">
                                <use xlink:href="#path-29"></use>
                            </mask>
                            <g id="Clip-50"></g>
                            <polygon id="Fill-49" fill="#95A8CC" mask="url(#mask-30)" points="0 0 57.8735741 0 47.7204045 57.7772074 10.1534681 57.7772074"></polygon>
                        </g>
                        <mask id="mask-32" fill="white">
                            <use xlink:href="#path-31"></use>
                        </mask>
                        <g id="Clip-53"></g>
                        <polygon id="Fill-52" fill="#DDE4F2" mask="url(#mask-32)" points="37.0417982 204.222793 109.086043 204.222793 109.086043 188.005397 37.0417982 188.005397"></polygon>
                        <polygon id="Fill-54" fill="#231F20" mask="url(#mask-32)" points="100.654216 211.884755 45.4735056 211.884755 44.1270739 204.222942 102.000648 204.222942"></polygon>
                    </g>
                </g>
                <g id="Group-68" transform="translate(84.000000, 17.000000)">
                    <g id="Group-36">
                        <path d="M119.069271,412.684339 L247.149883,412.684339 C282.680747,412.684339 311.33814,383.640484 310.820399,348.155394 L310.896226,170.336814 C310.389065,135.575285 282.031807,107.661508 247.22571,107.661508 L121.664325,107.661508 C86.8582279,107.661508 58.5009698,135.575285 57.9938092,170.336814 L55.3987554,348.155394 C54.8806617,383.640484 83.5380544,412.684339 119.069271,412.684339" id="Fill-1" fill="#D9E2F0"></path>
                        <path d="M119.069271,413.569591 L247.149883,413.569591 C282.680747,413.569591 311.33814,384.525735 310.820399,349.040293 C310.820399,349.040293 311.29617,247.643956 310.873654,224.077528 C253.133531,303.747689 115.132605,304.550157 57.2094385,224.971586 C56.7058048,255.920863 55.3987554,349.040293 55.3987554,349.040293 C54.8806617,384.525735 83.5380544,413.569591 119.069271,413.569591" id="Fill-3" fill="#CBD4E9"></path>
                        <path d="M89.1538876,306.41542 L278.845689,306.41542 C280.306509,306.41542 281.490824,307.598339 281.490824,309.057436 L281.490824,353.128373 C281.490824,354.58747 280.306509,355.770388 278.845689,355.770388 L89.1538876,355.770388 C87.6930677,355.770388 86.5087526,354.58747 86.5087526,353.128373 L86.5087526,309.057436 C86.5087526,307.598339 87.6930677,306.41542 89.1538876,306.41542" id="Fill-5" fill="#D9E2F0"></path>
                        <path d="M93.4088871,306.41542 L275.035848,306.41542 C278.723872,306.41542 281.71358,309.401603 281.71358,313.085277 L86.7315083,313.085277 C86.7315083,309.401603 89.7208635,306.41542 93.4088871,306.41542" id="Fill-7" fill="#CBD4E9"></path>
                        <path d="M93.1861667,355.770459 L274.813481,355.770459 C278.501151,355.770459 281.490859,352.784629 281.490859,349.100954 L86.5087879,349.100954 C86.5087879,352.784629 89.4984958,355.770459 93.1861667,355.770459" id="Fill-9" fill="#CBD4E9"></path>
                        <mask id="mask-34" fill="white">
                            <use xlink:href="#path-33"></use>
                        </mask>
                        <g id="Clip-12"></g>
                        <polygon id="Fill-11" fill="#97AACD" mask="url(#mask-34)" points="44.218193 443.809328 326.0076 443.809328 326.0076 418.909562 44.218193 418.909562"></polygon>
                        <path d="M295.019385,449.574488 C295.019385,458.403752 302.185232,465.561501 311.02492,465.561501 C319.864962,465.561501 327.031161,458.403752 327.031161,449.574488 C327.031161,440.745224 319.864962,433.587475 311.02492,433.587475 C302.185232,433.587475 295.019385,440.745224 295.019385,449.574488" id="Fill-13" fill="#97AACD" mask="url(#mask-34)"></path>
                        <path d="M301.201312,465.561537 C301.201312,470.980487 305.599643,475.373631 311.024991,475.373631 C316.450692,475.373631 320.849022,470.980487 320.849022,465.561537 C320.849022,460.142234 316.450692,455.749442 311.024991,455.749442 C305.599643,455.749442 301.201312,460.142234 301.201312,465.561537" id="Fill-14" fill="#97AACD" mask="url(#mask-34)"></path>
                        <path d="M42.4374881,450.004009 C42.4374881,458.833626 49.6036879,465.991023 58.4433764,465.991023 C67.2830649,465.991023 74.4492647,458.833626 74.4492647,450.004009 C74.4492647,441.174745 67.2830649,434.017348 58.4433764,434.017348 C49.6036879,434.017348 42.4374881,441.174745 42.4374881,450.004009" id="Fill-15" fill="#97AACD" mask="url(#mask-34)"></path>
                        <path d="M48.6196271,465.991058 C48.6196271,471.410361 53.0179576,475.803152 58.4433058,475.803152 C63.8686541,475.803152 68.2673373,471.410361 68.2673373,465.991058 C68.2673373,460.572108 63.8686541,456.178964 58.4433058,456.178964 C53.0179576,456.178964 48.6196271,460.572108 48.6196271,465.991058" id="Fill-16" fill="#97AACD" mask="url(#mask-34)"></path>
                        <path d="M63.1194813,227.522681 C63.8530654,230.852678 77.9435233,292.919617 78.6055124,297.796073 C79.2675015,302.672882 78.3815577,318.052232 78.4118885,315.314399 C78.4418667,312.576566 78.1960455,321.1138 83.5681384,320.269764 C86.250658,319.84845 106.693672,313.259967 127.449518,309.989504 C148.263909,306.709882 169.390778,306.747927 171.433881,306.381215 C175.513737,305.648848 176.963271,303.427794 178.33733,297.114785 C179.71139,290.801777 170.510552,265.2792 169.075478,257.017793 C167.640757,248.756738 166.908936,217.7437 165.95704,213.68803 C164.697603,208.322977 159.527246,206.638428 155.101054,207.237989 C152.569836,207.580747 126.564984,213.032106 106.260928,215.782268 C86.2284388,218.49509 71.890749,218.507419 69.7922752,218.7917 C65.5671129,219.363785 62.3855445,224.192685 63.1194813,227.522681" id="Fill-17" fill="#CAD4E9" mask="url(#mask-34)"></path>
                        <path d="M63.4840867,227.473258 C64.2176708,230.803255 78.3081287,292.870193 78.9701178,297.74665 C79.632107,302.623459 78.7461631,318.003161 78.7761413,315.265328 C78.8068248,312.527495 78.5606509,321.064376 83.9330965,320.220693 C86.6152634,319.799379 107.058277,313.210544 127.814476,309.940081 C148.628867,306.660459 169.755384,306.698856 171.798486,306.331792 C175.878342,305.599425 177.327876,303.378018 178.701936,297.065362 C179.326188,294.197894 177.768732,287.367403 175.748202,279.991599 C132.109117,302.248645 75.839336,296.936784 75.238714,218.476666 C72.5456139,218.595381 70.7917131,218.656323 70.1568807,218.742277 C65.9317183,219.314361 62.7505026,224.143261 63.4840867,227.473258" id="Fill-18" fill="#99AACD" mask="url(#mask-34)"></path>
                        <path d="M38.2083757,260.172923 L67.1440366,260.172923 C77.8388465,260.172923 86.5088937,268.832746 86.5088937,279.514945 L86.5088937,356.659691 L281.490965,356.659691 L281.490965,279.514945 C281.490965,268.832746 290.16066,260.172923 300.85547,260.172923 L329.791483,260.172923 C340.486293,260.172923 349.155988,268.832746 349.155988,279.514945 L349.155988,356.659691 L344.704402,412.684163 L281.490965,412.684163 L86.5088937,412.684163 L23.2954572,412.684163 L18.8438713,356.659691 L18.8438713,279.514945 C18.8438713,268.832746 27.5135658,260.172923 38.2083757,260.172923" id="Fill-19" fill="#D9E2F0" mask="url(#mask-34)"></path>
                        <path d="M40.656889,429.580629 L327.788058,429.580629 C337.130675,429.580629 344.704578,422.016009 344.704578,412.68441 L23.7407216,412.68441 C23.7407216,422.016009 31.3142721,429.580629 40.656889,429.580629" id="Fill-20" fill="#CBD4E9" mask="url(#mask-34)"></path>
                        <path d="M310.450997,170.336709 C309.943836,135.575531 275.837113,90.7651828 205.825326,90.7651828 L160.393545,90.7651828 C91.9840058,90.7651828 57.9940208,135.185922 57.9940208,170.336709 C124.563957,152.962461 104.908841,197.478665 183.999788,197.478665 C263.090736,197.478665 250.923115,158.054153 310.450997,170.336709" id="Fill-21" fill="#DDE4F2" mask="url(#mask-34)"></path>
                        <path d="M281.344107,282.48524 C281.344107,306.386323 300.742822,325.762162 324.672124,325.762162 C348.601426,325.762162 367.999788,306.386323 367.999788,282.48524 C367.999788,258.584156 348.601426,239.208317 324.672124,239.208317 C300.742822,239.208317 281.344107,258.584156 281.344107,282.48524" id="Fill-22" fill="#D9E2F0" mask="url(#mask-34)"></path>
                        <path d="M303.007939,282.48524 C303.007939,294.435605 312.70712,304.123701 324.671948,304.123701 C336.636775,304.123701 346.335956,294.435605 346.335956,282.48524 C346.335956,270.534522 336.636775,260.846778 324.671948,260.846778 C312.70712,260.846778 303.007939,270.534522 303.007939,282.48524" id="Fill-23" fill="#CBD4E9" mask="url(#mask-34)"></path>
                        <path d="M0,282.48524 C0,306.386323 19.3987148,325.762162 43.3280169,325.762162 C67.2573189,325.762162 86.6556811,306.386323 86.6556811,282.48524 C86.6556811,258.584156 67.2573189,239.208317 43.3280169,239.208317 C19.3987148,239.208317 0,258.584156 0,282.48524" id="Fill-24" fill="#D9E2F0" mask="url(#mask-34)"></path>
                        <path d="M21.6638674,282.48524 C21.6638674,294.435605 31.3630484,304.123701 43.3278758,304.123701 C55.2923505,304.123701 64.9918842,294.435605 64.9918842,282.48524 C64.9918842,270.534522 55.2923505,260.846778 43.3278758,260.846778 C31.3630484,260.846778 21.6638674,270.534522 21.6638674,282.48524" id="Fill-25" fill="#CBD4E9" mask="url(#mask-34)"></path>
                        <path d="M176.650087,144.121924 C176.650087,148.299127 180.040444,151.685486 184.222579,151.685486 C188.404361,151.685486 191.794719,148.299127 191.794719,144.121924 C191.794719,139.944721 188.404361,136.558713 184.222579,136.558713 C180.040444,136.558713 176.650087,139.944721 176.650087,144.121924" id="Fill-26" fill="#66A5AF" mask="url(#mask-34)"></path>
                        <path d="M247.792827,166.269907 C237.076856,170.637687 223.568328,169.316679 214.105093,162.59363 C204.595303,155.837115 195.874117,150.869421 183.790787,150.511163 C176.28601,150.288529 169.250657,153.424074 162.099622,155.213951 C155.813018,156.787888 151.010511,161.83132 144.23438,162.758844 C135.327682,163.978046 126.179394,158.508017 122.173954,150.468891 C118.168515,142.43047 119.043173,132.424628 123.524384,124.640545 C126.795534,118.95845 129.803935,114.717134 126.12755,108.381932 C125.326955,107.001743 124.320393,105.723712 123.771969,104.225513 C123.254228,102.811506 123.174168,101.274558 123.23483,99.7703702 C123.566353,91.5621557 129.791238,85.4080203 133.939515,78.6293125 C134.909045,77.0448076 135.883513,75.400417 136.176241,73.566858 C136.921464,68.9007059 133.2084,64.8654672 131.229486,60.5734246 C124.816973,46.6651491 135.760073,30.8454634 146.410445,22.4998641 C152.694228,17.5762035 160.225456,15.5894077 167.002292,11.5767141 C170.088283,9.74984832 172.902001,7.48616923 176.025024,5.72271179 C181.470475,2.64846227 187.404747,2.51741828 193.451173,3.3642724 C210.674882,5.77660891 230.256287,18.2817978 234.247972,36.2799136 C236.954122,48.4800378 232.523344,62.6627306 244.623955,71.2038391 C248.268246,73.7764579 252.871839,75.3063612 255.35756,79.0083537 C260.639719,86.8762765 252.87854,98.5310887 257.708556,106.683645 C258.786008,108.501704 260.395661,109.930506 261.861066,111.454068 C269.59403,119.494603 273.585362,130.987724 272.498035,142.08419 C272.232816,144.79208 271.663231,147.521106 270.324087,149.890466 C268.485189,153.144372 265.36922,155.446449 262.324141,157.616424 C257.766397,160.864695 253.115191,164.069284 247.942365,166.208612 C247.892637,166.229043 247.842908,166.249475 247.792827,166.269907" id="Fill-27" fill="#0B2D4E" mask="url(#mask-34)"></path>
                        <path d="M263.405648,120.704928 C258.057185,116.115218 256.910255,108.089831 258.457835,101.218477 C259.470393,96.7217658 261.469057,92.3479968 261.290598,87.7420827 C261.067349,81.975443 257.05415,76.5374701 251.605172,74.6179576 C248.826369,73.6393549 245.768241,73.50972 243.108293,72.2436661 C239.083103,70.3276763 236.870006,66.2829263 235.400369,62.2719941 C233.799886,57.9035091 234.464344,54.174392 234.444947,49.6005343 C234.419906,43.7528728 234.272131,37.8985182 233.677505,32.0772768 C232.991533,25.3665568 228.969164,18.715018 224.35887,13.8931631 C223.696881,13.2006027 223.00703,12.535167 222.291786,11.8975605 C210.320963,1.22381692 187.439134,-3.45043734 173.253451,5.23087414 C170.427036,6.96086605 168.670667,9.35100963 166.427592,11.6404043 C164.147133,13.9678441 161.191988,15.8535388 158.444927,17.5754285 C152.876742,21.0657074 146.89133,23.8155174 141.011019,26.725962 C137.253164,28.5859411 133.43641,30.5896458 130.674537,33.7424513 C127.346604,37.5420222 125.876262,42.7418614 126.024389,47.7881115 C126.172517,52.8343616 127.832604,57.7435791 130.148331,62.2311309 C131.784083,65.4011976 133.765818,68.4331748 134.806238,71.8448978 C136.501945,77.4044035 133.260421,82.6317197 129.151292,86.198441 C126.038144,88.9013992 122.459453,91.3750305 120.75387,95.1263406 C119.336077,98.2439192 119.464102,102.019536 121.089625,105.034252 C122.605464,107.846061 125.27564,109.921277 126.690963,112.784869 C128.049505,115.534679 128.090769,118.898846 126.799943,121.681065 C125.156432,125.223832 121.41339,128.513317 122.644259,132.219537" id="Stroke-28" stroke="#0B2D4E" stroke-width="4" mask="url(#mask-34)"></path>
                        <path d="M245.004079,285.400123 C243.509048,289.400487 241.548122,292.877027 239.610472,295.745552 C229.034517,311.402842 216.396767,322.11146 203.866586,329.011701 C192.674491,335.174995 180.944904,334.90093 169.497818,332.509025 C161.673861,330.874498 153.889053,325.727147 146.342306,320.951087 C138.579364,316.038346 130.922932,310.184696 123.686901,302.405193 C117.985753,296.276421 112.878174,288.66812 112.009159,274.186351 C111.667055,268.489813 112.256744,262.181032 114.311485,258.316995 C116.786626,253.662468 120.533195,253.819228 123.869592,254.36771 C142.779486,257.475778 161.091226,270.995148 180.131613,271.245259 C190.758003,271.384758 200.665973,265.51913 210.876899,260.214667 C218.753759,256.123066 227.498928,251.623184 235.700963,252.481311 C243.137319,253.258768 250.490089,270.720379 245.004079,285.400123" id="Fill-29" fill="#484D5E" mask="url(#mask-34)"></path>
                        <path d="M128.439503,251.49126 C127.997237,250.493635 127.551443,249.473816 127.081315,248.424408 C122.180056,237.477656 118.590079,225.941911 116.412251,214.149361 C115.626822,209.897477 114.829049,205.244711 111.576239,202.392039 C107.075277,198.444867 98.307536,198.951078 92.7322968,199.696831 C90.1277205,200.045225 87.4042895,200.94351 85.8313159,203.046202 C83.2246235,206.530845 83.4849048,214.396302 83.3826263,218.595345 C82.7594324,244.115809 102.958741,265.213185 119.406896,282.436309 C122.573299,285.752215 126.011622,289.105109 130.399019,290.445492 C134.786417,291.785875 140.356718,290.392652 142.276028,286.230244 C143.684651,283.175369 142.820573,279.587512 141.70609,276.41357 C139.789249,270.954461 136.902877,265.954006 133.618325,261.211412 C131.398175,258.006118 129.939119,254.873744 128.439503,251.49126" id="Fill-30" fill="#F8A17A" mask="url(#mask-34)"></path>
                        <path d="M225.096793,112.803892 C225.768304,117.253751 225.260438,121.826904 223.305507,125.88962 C218.033929,136.846235 204.980364,138.982393 193.973076,139.410752 C189.897805,139.569625 185.802783,139.365661 181.768423,138.765043 C178.173861,138.230299 174.971131,138.776316 171.338832,138.693533 C164.15923,138.529728 157.019834,136.413297 150.953658,132.565113 C148.003098,130.693509 145.224296,128.329785 143.710573,125.182969 C141.629381,120.857108 142.235293,115.745688 143.336022,111.0739 C143.971912,108.376578 144.769333,105.684892 146.156441,103.285237 C147.640538,100.717903 149.769343,98.53595 151.005856,95.8410939 C153.330047,90.7754691 151.42026,84.8545356 153.486639,79.8850802 C155.104404,75.9939194 159.172974,71.6014801 162.548519,69.1690643 C167.142237,65.859147 173.068398,64.813261 178.719464,65.1975862 C184.370531,65.5822637 189.839964,67.2840741 195.224048,69.0422475 C199.462966,70.4266638 203.106551,69.5695939 206.215819,73.0669182 C208.680379,75.8396256 207.819829,80.364518 208.607726,83.7237529 C211.256741,95.02066 223.312914,100.982457 225.096793,112.803892" id="Fill-31" fill="#061F33" mask="url(#mask-34)"></path>
                        <path d="M147.138421,162.978025 C139.945417,175.293341 131.849188,187.110549 124.109876,199.087688 C119.788078,205.776215 115.41373,212.576059 113.096944,220.192814 C102.428586,219.93143 91.7295438,217.677967 81.2509296,215.675671 C82.9349989,201.540887 90.4041548,188.727815 97.0868239,176.40792 C104.048819,163.57336 111.547248,151.02766 118.09766,137.971875 C123.424257,127.356255 133.374549,114.688318 146.679579,121.069667 C156.918367,125.980646 155.325996,140.048851 153.212004,149.124352 C152.083413,153.970865 149.739823,158.523939 147.138421,162.978025" id="Fill-32" fill="#0065FF" mask="url(#mask-34)"></path>
                        <path d="M227.735297,251.49126 C228.177564,250.493635 228.623357,249.473816 229.093486,248.424408 C233.994745,237.477656 237.584722,225.941911 239.76255,214.149361 C240.547978,209.897477 241.345751,205.244711 244.598209,202.392039 C249.099524,198.444867 257.867264,198.951078 263.442504,199.696831 C266.04708,200.045225 268.770511,200.94351 270.343132,203.046202 C272.950177,206.530845 272.689896,214.396302 272.792174,218.595345 C273.415368,244.115809 253.216059,265.213185 236.767904,282.436309 C233.601501,285.752215 230.163178,289.105109 225.775781,290.445492 C221.388384,291.785875 215.818082,290.392652 213.898772,286.230244 C212.49015,283.175369 213.354227,279.587512 214.468711,276.41357 C216.385552,270.954461 219.271923,265.954006 222.556475,261.211412 C224.776273,258.006118 226.235682,254.873744 227.735297,251.49126" id="Fill-33" fill="#F8A17A" mask="url(#mask-34)"></path>
                        <path d="M209.036309,162.978025 C215.731674,174.48418 224.205982,186.915745 232.064854,199.087688 C236.384536,205.777624 240.761,212.576059 243.077786,220.192814 C253.746144,219.93143 264.445539,217.677967 274.9238,215.675671 C273.239731,201.540887 265.770575,188.727815 259.087906,176.40792 C252.125911,163.57336 244.627835,151.02766 238.07707,137.971875 C232.750826,127.356255 222.800181,114.688318 209.495151,121.069667 C199.256363,125.980646 200.848734,140.048851 202.962726,149.124352 C204.091317,153.970865 206.442313,158.519712 209.036309,162.978025" id="Fill-34" fill="#0065FF" mask="url(#mask-34)"></path>
                        <path d="M231.389287,263.288388 C228.422503,255.413772 223.957163,248.970424 221.392792,240.832664 C217.913205,229.78939 215.54387,214.041919 219.538376,202.610798 C223.779762,190.473025 228.983272,180.897656 229.29963,167.377228 C229.570492,155.802029 227.234661,144.400146 224.911175,133.125079 C222.609907,121.957807 221.567724,118.715173 210.620745,117.012658 C206.718641,116.405699 202.866619,115.350302 198.974039,114.659855 C192.370724,113.488914 185.676769,112.962976 178.969059,112.952408 L178.969059,112.948181 C178.881593,112.948181 178.79448,112.950295 178.707367,112.950295 C178.620254,112.950295 178.532788,112.948181 178.445675,112.948181 L178.445675,112.952408 C171.737965,112.962976 165.04401,113.488914 158.440695,114.659855 C154.548115,115.350302 150.69574,116.405699 146.793989,117.012658 C135.84701,118.715173 134.804474,121.957807 132.503207,133.125079 C130.17972,144.400146 127.844242,155.802029 128.115104,167.377228 C128.431462,180.897656 133.634619,190.473025 137.876358,202.610798 C141.870511,214.041919 139.501529,229.78939 136.021589,240.832664 C133.457571,248.970424 128.992231,255.413772 126.025447,263.288388 C125.793734,263.903097 125.568015,264.575578 125.746121,265.216708 C125.974308,266.03996 126.777018,266.524682 127.513777,266.909007 C142.062372,274.501103 158.368395,276.784157 174.315737,277.957917 C175.716601,278.061131 177.08008,278.160471 178.425219,278.248186 L178.425219,278.286231 C178.518681,278.280243 178.613906,278.273197 178.707367,278.267209 C178.800476,278.273197 178.896053,278.280243 178.989162,278.286231 L178.989162,278.248186 C180.334654,278.160471 181.698133,278.061131 183.098644,277.957917 C199.045986,276.784157 215.352009,274.501103 229.900957,266.909007 C230.637716,266.524682 231.440426,266.03996 231.668613,265.216708 C231.846366,264.575578 231.621,263.903097 231.389287,263.288388" id="Fill-35" fill="#0086FF" mask="url(#mask-34)"></path>
                    </g>
                    <g id="Group-39" transform="translate(125.000000, 113.000000)">
                        <mask id="mask-36" fill="white">
                            <use xlink:href="#path-35"></use>
                        </mask>
                        <g id="Clip-38"></g>
                        <path d="M87.6268262,6.43409297 C88.3026007,4.34844766 90.8453036,-0.301017018 89.5624953,-2.1221104 C88.2719317,-3.95381416 83.4840501,-3.56087674 81.613949,-3.49792187 C61.0442477,-2.80435727 40.4745464,-2.11079267 19.9051977,-1.41722807 C21.095294,3.00729673 21.1439413,7.13260907 22.8363739,11.5090335 C24.2718219,15.2216024 26.1835199,18.7622833 28.614475,21.9156856 C33.4781477,28.2246124 40.3430577,32.6434783 48.1671656,34.1830432 C61.4179154,36.7900114 76.056876,30.3063672 82.764211,18.5483075 C84.9237282,14.7632344 86.2826801,10.5816871 87.6268262,6.43409297" id="Fill-37" fill="#0065FF" mask="url(#mask-36)"></path>
                    </g>
                    <g id="Group-67">
                        <path d="M163.277977,134.726951 C169.725053,142.048153 182.117687,142.630101 190.791613,139.634407 C196.695907,137.595476 200.868167,132.94588 200.992665,126.553963 C201.131622,119.407487 194.856657,114.330237 193.270634,107.670596 C192.371641,103.894627 192.459812,100.004876 192.552921,96.1630324 C192.6619,91.6793555 192.692936,87.1837015 192.910543,82.70707 C188.468127,81.7689783 184.864042,81.2983472 180.145827,81.4931519 C176.241255,81.6541387 172.34162,81.246916 168.439164,81.4758907 C168.125275,81.4942087 167.784582,81.5262651 167.56239,81.734456 C167.338788,81.9440559 167.297877,82.2727226 167.271778,82.5756738 C166.748394,88.6294125 167.262608,94.7610027 166.852436,100.826719 C166.475769,106.400315 165.225502,112.011604 161.957526,116.628439 C157.974305,122.256284 158.955121,129.818086 163.277977,134.726951" id="Fill-40" fill="#F8A17A"></path>
                        <path d="M193.013915,106.772628 C192.31313,103.263326 192.384725,99.6680714 192.47078,96.112975 C192.579407,91.6289458 192.610796,87.1332918 192.828403,82.6566604 C188.385634,81.7185686 184.781902,81.2482898 180.063334,81.4427422 C176.159114,81.6040813 172.25948,81.1965063 168.357024,81.425481 C168.043135,81.4441513 167.702441,81.4762077 167.479897,81.6843986 C167.256648,81.8936462 167.215737,82.222313 167.189638,82.5252641 C166.666254,88.5793551 167.180468,94.7109453 166.770296,100.776309 C166.652852,102.513698 166.435951,104.250736 166.114302,105.964171 C166.727621,106.49962 167.351168,107.01358 167.992701,107.487381 C172.811432,111.047057 179.30753,112.229271 185.07463,110.595448 C188.007556,109.764446 190.645285,108.45295 193.013915,106.772628" id="Fill-42" fill="#E5785C"></path>
                        <path d="M209.470146,58.6623665 C209.349528,52.7245242 208.448066,47.1033715 206.851462,42.4477875 C199.961767,22.3603656 174.684152,17.7350767 159.713746,32.4394796 C143.01977,48.8372384 150.051244,87.3719187 168.074841,100.685212 C172.893572,104.244888 179.390023,105.427102 185.15677,103.79328 C202.606197,98.8502442 209.846813,77.2114307 209.470146,58.6623665" id="Fill-44" fill="#F8A17A"></path>
                        <path d="M209.441967,41.2335875 C204.016266,20.7030115 179.137536,14.2744588 163.147166,27.8653401 C160.595845,30.0335543 158.827484,32.6209684 157.008337,35.385926 C155.464283,37.732036 153.316434,39.5078228 151.955071,42.0864302 C150.556324,44.7361958 149.684134,47.6646061 149.39458,50.6458567 C149.112433,53.5489036 150.06186,56.0873523 150.135924,58.8769687 C150.058686,55.9654673 151.325529,53.0451592 153.505826,51.1104992 C155.201181,49.6063115 157.342329,48.7242305 159.3156,47.6078908 C161.288871,46.4915511 163.218056,44.9915907 163.96081,42.8515579 C170.322536,51.1806006 180.19418,53.7313788 189.906057,56.1349086 C198.055189,58.151295 206.997862,63.2824418 207.181963,72.78771 C207.20524,73.9931737 207.288474,74.3274767 207.807979,75.9024704 C208.380033,74.4736683 208.589175,73.4267255 208.761991,71.9014017 C208.937628,70.3517714 209.387653,68.8081297 209.691667,67.2588517 C210.316625,64.0711716 210.718685,60.8384011 210.88621,57.5943581 C211.193399,51.6632089 210.699287,45.992034 209.441967,41.2335875" id="Fill-46" fill="#E5785C"></path>
                        <path d="M214.074339,76.4790991 C215.686813,75.2524993 216.926852,73.4495877 217.615998,71.5568477 C219.788536,65.1786694 219.554,58.1184988 219.289134,51.2844847 C219.141359,47.4732889 218.98512,43.6074915 217.941173,39.9752482 C216.802002,36.0125769 214.643219,32.4934119 212.089782,29.477639 C204.717967,20.7709642 193.716674,16.3475253 183.140366,17.2507424 C178.891927,17.6135792 175.768199,19.6465223 172.0375,21.3719347 C168.395326,23.0564839 164.116203,23.9811894 160.284636,25.2433684 C155.86444,26.6992952 151.314807,28.2270849 147.807711,31.283721 C145.244046,33.5178095 143.377639,36.4662991 142.043433,39.5923321 C140.443302,43.3404718 140.288121,47.5092203 140.7452,51.5085276 C141.121868,54.804002 141.55567,58.3214056 143.019311,61.3970642 C144.389844,64.2779182 147.440919,66.1593856 150.173167,67.5948809 C149.768285,67.3821105 150.119206,62.6282435 150.108273,61.8951722 C150.046201,57.6964808 150.275798,53.3847111 151.592723,49.366029 C152.863798,45.4375277 155.381262,43.0336457 158.656291,40.6371612 C159.970042,39.6758198 161.278502,38.689115 162.376409,37.4790718 C162.925187,36.873874 165.313567,34.0874281 164.92244,33.2254264 C166.78003,37.3180849 169.690031,41.5199468 173.328679,44.203178 C180.244825,49.3026206 187.942521,52.9038642 195.751665,55.9407733 C196.326893,56.1644639 196.906002,56.3870978 197.482994,56.6181861 C199.629785,57.4787787 201.74413,58.4594949 203.508611,60.0630224 C207.446336,63.6413685 207.73201,69.1434544 207.585293,74.1030463 C207.569423,74.6462447 207.558842,75.2031817 207.733068,75.7185509 C208.555882,78.1523758 212.495369,77.6803356 214.074339,76.4790991" id="Fill-48" fill="#0B2D4E"></path>
                        <polygon id="Fill-50" fill="#B8D1CE" points="105.247277 195.984622 103.994188 198.953191 253.475705 198.953191 251.975385 195.617206"></polygon>
                        <path d="M243.161795,293.300947 L114.252375,293.300947 L105.016974,197.443332 C104.851212,195.724613 106.182597,194.235221 107.885006,194.235221 L249.529517,194.235221 C251.231926,194.235221 252.56331,195.724613 252.397901,197.443332 L243.161795,293.300947 Z" id="Fill-52" fill="#B8D1CE"></path>
                        <path d="M244.173259,296.011339 L113.24084,296.011339 L103.860486,200.153723 C103.692255,198.435004 105.044448,196.945612 106.773661,196.945612 L250.641144,196.945612 C252.370004,196.945612 253.722549,198.435004 253.554319,200.153723 L244.173259,296.011339 Z" id="Fill-54" fill="#FFFFFF"></path>
                        <mask id="mask-38" fill="white">
                            <use xlink:href="#path-37"></use>
                        </mask>
                        <g id="Clip-57"></g>
                        <polygon id="Fill-56" fill="#B8D1CE" mask="url(#mask-38)" points="113.240699 301.828106 244.094822 301.828106 244.094822 296.011444 113.240699 296.011444"></polygon>
                        <path d="M187.785752,246.478616 C187.785752,251.486469 183.721062,255.546366 178.707296,255.546366 C173.693531,255.546366 169.62884,251.486469 169.62884,246.478616 C169.62884,241.470763 173.693531,237.410866 178.707296,237.410866 C183.721062,237.410866 187.785752,241.470763 187.785752,246.478616" id="Fill-58" fill="#B8D1CE" mask="url(#mask-38)"></path>
                        <path d="M163.271629,338.422032 C169.261272,337.349022 175.222349,336.170683 181.137576,335.186444 C210.819165,330.249045 241.770771,324.448587 268.73034,310.557573 C274.942881,307.343825 281.407238,302.28912 284.631128,295.97893 C293.090976,279.385662 276.203023,263.817496 259.703376,268.526273 C232.146712,276.390321 208.211767,293.442243 181.797449,304.54822 C177.388185,306.40221 172.948238,308.340393 168.483603,310.288792 C164.64992,311.962068 160.798251,313.643095 156.93318,315.284667" id="Fill-59" fill="#484D5E" mask="url(#mask-38)"></path>
                        <path d="M156.933109,315.284667 C152.513265,317.161908 148.075434,318.987717 143.626669,320.691641 C139.077037,322.434667 112.733961,328.239704 118.599813,338.167694 C119.751681,340.117149 122.299828,340.628291 124.548545,340.910811 C137.476554,342.534065 150.439832,340.720586 163.271558,338.422032" id="Fill-60" fill="#F8A17A" mask="url(#mask-38)"></path>
                        <path d="M134.07872,341.56973 C128.382157,342.215438 122.421786,342.016759 117.133632,342.324289 C114.749836,342.462731 112.364277,342.601173 109.976602,342.581093 C106.184184,342.549389 102.407989,342.117508 98.6399061,341.686331 C95.9023677,341.373164 93.1644766,341.059997 90.4265855,340.74683 C88.9354347,340.57598 87.3786846,340.381879 86.1368819,339.539605 C84.6534902,338.533525 83.885343,336.789795 83.1909069,335.138359 C81.8122625,331.861203 80.0555402,328.698886 79.0197053,325.286458 C78.342198,323.053074 77.6124935,320.857031 79.1202204,318.783577 C79.8594475,317.766929 80.8882287,317.001097 81.9307645,316.298321 C83.2674394,315.397217 84.6651288,314.567624 86.1788514,314.013153 C91.1569955,312.18981 95.783513,314.138561 100.438598,315.927734 C105.363839,317.820826 110.262629,319.864337 115.420995,321.04937 C120.974368,322.325287 126.684686,322.569409 132.35127,322.928371 C136.874804,323.215118 143.908041,322.857917 147.62428,325.90469 C149.143293,327.149608 151.393421,329.994178 151.360286,332.030996 C151.318299,334.597274 148.170236,336.915203 146.211425,338.033656 C142.594996,340.097951 138.413214,341.078315 134.07872,341.56973" id="Fill-61" fill="#F8A17A" mask="url(#mask-38)"></path>
                        <path d="M160.6582,435.029029 C163.683529,439.893508 167.535551,444.440593 170.573224,448.774908 C171.942699,450.728943 173.313231,452.684035 174.809672,454.542605 C177.186062,457.494617 179.867171,460.185951 182.542284,462.870943 C184.485929,464.82216 186.429574,466.773376 188.373572,468.724241 C189.432331,469.787036 190.549989,470.886467 191.981536,471.337018 C193.691704,471.875637 195.538008,471.396199 197.265458,470.916409 C203.71606,469.125475 209.839019,468.98034 210.001607,460.780932 C210.104943,455.580741 208.155655,449.698557 203.769669,446.752533 C198.692067,443.342219 193.14857,440.771362 188.345357,436.924235 C183.899767,433.363854 180.166952,429.040812 176.37136,424.823098 C173.341093,421.456113 169.260179,415.723644 164.562772,414.700655 C162.642757,414.282512 159.013279,414.283569 157.43431,415.57252 C155.444463,417.196832 155.576014,421.101026 155.912122,423.329126 C156.5332,427.443273 158.356227,431.327741 160.6582,435.029029" id="Fill-62" fill="#F8A17A" mask="url(#mask-38)"></path>
                        <path d="M113.96335,342.473158 C109.136154,341.435374 103.068215,339.706439 100.147633,335.729677 C97.9109069,332.684314 97.3660091,328.913277 97.8227357,325.16408 C98.2688818,321.502599 101.466674,318.938082 104.933564,317.668505 C96.8965858,312.250964 88.8994609,311.270952 80.8057005,313.338065 C79.9155244,313.565279 79.0369868,313.890423 78.1961866,314.300111 C67.0104397,319.751823 72.3790057,333.547372 80.4138678,339.126605 C84.0697971,341.665054 88.3979433,343.181923 92.838596,343.543351 C96.4194034,343.835029 98.8423471,343.708917 102.428092,343.694474 C106.761529,343.677565 109.0173,342.90046 113.96335,342.473158" id="Fill-63" fill="#0B2D4E" mask="url(#mask-38)"></path>
                        <path d="M172.021841,450.950837 C175.830483,454.089552 180.951112,457.772522 185.885523,457.594979 C189.664892,457.459355 192.964257,455.547945 195.626321,452.865066 C198.225254,450.245243 198.256996,446.149062 197.104069,442.645044 C206.342997,445.583318 212.071654,451.242164 215.466949,458.866317 C215.840442,459.704716 216.129997,460.594547 216.329616,461.507628 C218.983921,473.653503 204.819399,478.001204 195.454563,475.164736 C191.193427,473.874375 187.318481,471.423289 184.280808,468.167621 C181.831413,465.542866 180.427728,463.565934 178.215689,460.747432 C175.541987,457.340993 174.753384,455.091404 172.021841,450.950837" id="Fill-64" fill="#0B2D4E" mask="url(#mask-38)"></path>
                        <path d="M164.28133,389.060879 C166.560025,397.724577 168.862351,406.473876 171.524415,414.989621 C171.577317,415.159063 171.635158,415.326742 171.694409,415.49407 C172.939033,419.023099 174.460162,422.446446 175.658232,425.995202 C176.420383,428.25254 177.104944,430.542287 177.600819,432.873602 C177.833943,433.969862 178.025098,435.075986 178.142542,436.190917 C178.190155,436.641821 178.359796,437.316063 178.237062,437.757808 C178.08047,438.321086 177.405432,438.805456 176.902151,439.025624 C176.367128,439.259882 175.778144,439.344427 175.194451,439.376483 C172.86638,439.503652 170.571461,438.83258 168.37353,438.054419 C167.015694,437.573572 165.673023,437.049044 164.352572,436.473436 C163.13581,435.943624 161.716254,435.434948 160.616583,434.690957 C160.096021,434.338688 159.713711,433.659866 159.3314,433.155769 C158.907121,432.596014 158.488837,432.032032 158.075843,431.464175 C157.249503,430.326699 156.445734,429.173371 155.661364,428.006657 C152.078793,422.677535 148.911685,417.083507 145.869074,411.433468 C142.851151,405.82852 139.955257,400.158049 136.878789,394.584453 C122.351355,368.26434 107.714236,340.413971 101.90693,310.674737 C100.579072,303.813951 100.540982,295.613839 103.497538,289.174718 C111.284815,272.256306 133.985011,275.835709 140.518142,291.68428 C151.429148,318.154108 152.877976,347.483301 160.534408,375.068411 C161.812184,379.673268 163.043406,384.354216 164.28133,389.060879" id="Fill-65" fill="#F8A17A" mask="url(#mask-38)"></path>
                        <path d="M145.426172,410.600317 C142.554614,405.241605 139.783923,399.839563 136.888735,394.594281 C122.361301,368.274168 107.723829,340.423799 101.916876,310.684566 C100.589018,303.823779 100.550575,295.623667 103.507484,289.184546 C111.294761,272.266134 133.994957,275.845537 140.528088,291.694109 C151.439093,318.163936 152.887922,347.493129 160.544353,375.078239 C161.82213,379.683097 163.052999,384.364044 164.291275,389.070707 C165.354267,393.112639 166.422549,397.172889 167.529979,401.219752" id="Fill-66" fill="#484D5E" mask="url(#mask-38)"></path>
                    </g>
                </g>
                <g id="Group-18" transform="translate(382.000000, 0.000000)">
                    <g id="Group-3">
                        <mask id="mask-40" fill="white">
                            <use xlink:href="#path-39"></use>
                        </mask>
                        <g id="Clip-2"></g>
                        <path d="M111.401534,70.8087541 L37.7240227,70.8087541 L26.4932977,85 L13.7310741,70.8087541 L4.59846649,70.8087541 C2.05880742,70.8087541 0,68.7426675 0,66.1940291 L0,4.61428674 C0,2.0660468 2.05880742,-3.98473799e-05 4.59846649,-3.98473799e-05 L111.401534,-3.98473799e-05 C113.941193,-3.98473799e-05 116,2.0660468 116,4.61428674 L116,66.1940291 C116,68.7426675 113.941193,70.8087541 111.401534,70.8087541" id="Fill-1" fill="#3D67FE" mask="url(#mask-40)"></path>
                    </g>
                    <line x1="14" y1="18" x2="69" y2="18" id="Stroke-4" stroke="#DDE4F2" stroke-width="5" stroke-linecap="round"></line>
                    <line x1="14" y1="39" x2="94" y2="39" id="Stroke-6" stroke="#DDE4F2" stroke-width="5" stroke-linecap="round"></line>
                    <line x1="78" y1="18" x2="95" y2="18" id="Stroke-8" stroke="#DDE4F2" stroke-width="5" stroke-linecap="round"></line>
                    <line x1="56" y1="49" x2="73" y2="49" id="Stroke-10" stroke="#DDE4F2" stroke-width="5" stroke-linecap="round"></line>
                    <line x1="14" y1="29" x2="50" y2="29" id="Stroke-12" stroke="#DDE4F2" stroke-width="5" stroke-linecap="round"></line>
                    <line x1="14" y1="49" x2="50" y2="49" id="Stroke-14" stroke="#DDE4F2" stroke-width="5" stroke-linecap="round"></line>
                    <line x1="56" y1="29" x2="92" y2="29" id="Stroke-16" stroke="#DDE4F2" stroke-width="5" stroke-linecap="round"></line>
                </g>
                <g id="Group-7" transform="translate(26.000000, 96.000000)">
                    <g id="Group-3">
                        <mask id="mask-42" fill="white">
                            <use xlink:href="#path-41"></use>
                        </mask>
                        <g id="Clip-2"></g>
                        <path d="M38.7691109,25 L79.0001893,8.76430332 L79.0001893,3.14678379 C79.0001893,1.40897238 77.5980656,-2.71745339e-05 75.8684643,-2.71745339e-05 L3.13164384,-2.71745339e-05 C1.40204252,-2.71745339e-05 -8.11257669e-05,1.40897238 -8.11257669e-05,3.14678379 L-8.11257669e-05,8.04635214 L38.7691109,25 Z" id="Fill-1" fill="#95A8CC" mask="url(#mask-42)"></path>
                    </g>
                    <g id="Group-6" transform="translate(0.000000, 11.000000)">
                        <mask id="mask-44" fill="white">
                            <use xlink:href="#path-43"></use>
                        </mask>
                        <g id="Clip-5"></g>
                        <path d="M38.7273301,16.808227 L0,0 L0,33.8767267 C0,35.6015395 1.40185515,37 3.13145883,37 L9.35110937,37 L25.6914834,37 L75.8683789,37 C77.5979826,37 79.0001082,35.6015395 79.0001082,33.8767267 L79.0001082,0.677248639 L38.7273301,16.808227 Z" id="Fill-4" fill="#95A8CC" mask="url(#mask-44)"></path>
                    </g>
                </g>
            </g>
        </g>
    </g>
</svg>